<svg id="Capa_1" data-name="Capa 1" xmlns="http://www.w3.org/2000/svg" viewBox="0 0 715.39 601.86"><defs><style>.cls-1{fill:#2cf5a9;}</style></defs><title>abstract_geometric_torus</title><path class="cls-1" d="M413.92,700.86C344.2,699.3,281,685.54,221.14,655.81c-37.08-18.42-70.56-42.12-99.53-72.56A293,293,0,0,1,69.15,507.1,267.32,267.32,0,0,1,42.8,404.91c-3.37-64.67,14.11-122.74,51.68-174.15,27.66-37.86,62.67-66.44,103.14-87.87,45.6-24.15,94.16-37.26,144.94-41.91,64.09-5.87,126.79,1.26,187.88,22.43,51.88,18,99,44.88,139.09,84.11,42.73,41.83,72,92,83.37,152.61,10.2,54.27,4.45,106.8-17.5,157.09-20.66,47.34-52.58,85-93.21,114.65-46,33.56-97.27,53.33-152.43,62.5-13.14,2.18-26.4,3.86-39.67,5S423.48,700.48,413.92,700.86ZM145.17,441.16a19.49,19.49,0,0,0,2.15,2.13c12.57,9.19,24.85,18.87,37.85,27.34,10.21,6.66,21.3,11.85,32.05,17.6,1.65.88,3.22,1.4,4.89-.84,12.75-17.1,29.49-28.75,48-37.92,1.27-.63,2.52-1.29,4.15-2.13a212.31,212.31,0,0,1-36.12-42.88A52.51,52.51,0,0,0,220,386.76c-2.12-1.25-3.76-1.71-5.91-.37-12.47,7.77-25.32,14.92-37.38,23.33S154.29,429,145.17,441.16Zm510.39-83.63c-14.34-10-28-20.28-42.35-29.48-9.79-6.3-20.41-11.19-30.67-16.67-1.86-1-3.28-.91-4.84,1.17a111.73,111.73,0,0,1-30.58,27.82c-6.83,4.25-13.93,8-21,12.1.42.48.74.93,1.14,1.3a208.85,208.85,0,0,1,34,40.58c5,7.92,10.87,14.41,19,18.52,1.55.78,4,1.16,5.42.4,9.83-5.45,19.74-10.8,29.13-17A163.55,163.55,0,0,0,655.56,357.53Zm-7.89,127.24c23.09-14.27,44-32,60.75-54.68a5.49,5.49,0,0,0,.13-4.8c-5-8.63-9.88-17.37-15.52-25.52-9.92-14.32-21.77-26.84-35-38.63a307.62,307.62,0,0,1-52.07,71.08c7.57,8.26,15.43,16,22.26,24.55S641,475.08,647.67,484.77Zm-505.74-46.2A311.29,311.29,0,0,1,194.49,367c-16.79-15.11-30.91-32.2-41.48-52.53-23.79,14.82-44.57,32.43-61.47,54.84-1.65,2.19-1,3.72,0,5.72C104.15,399.53,121.39,420,141.93,438.57ZM206.36,548.3c-3-19.86,1-38.39,12.1-55.92-28.48-10.77-54.2-25.23-76.94-45.53a29.58,29.58,0,0,0-1.67,2.66c-8,16.7-14.6,34-17.89,52.38-1.22,6.84-.22,14.11-.13,21.19a3.87,3.87,0,0,0,1.09,2.62c6.35,5,11.82,11.3,19.82,13.84a189.84,189.84,0,0,0,44.35,8.69C193.4,548.66,199.75,548.3,206.36,548.3Zm375.13-241c28.52,10.76,54.29,25.33,77,45.51,7.54-12.28,19.11-45.26,20.22-58.75.46-5.76-.24-11.62-.51-17.44a4,4,0,0,0-1-2.65c-6.53-5-12.09-11.4-20.27-14a193.49,193.49,0,0,0-44.41-8.58c-6.17-.43-12.39-.07-18.89-.07C596.55,271.4,592.63,289.7,581.49,307.3ZM712.94,423.51c.93-1.27,1.45-1.91,1.89-2.6,12.83-20.15,20.82-42.06,22.59-66.36a20.44,20.44,0,0,0-2.67-12.09,238,238,0,0,0-44.9-57.12c-1.74-1.65-3.55-3.24-5.42-4.93-2.34,13.37-4.14,26.32-7,39-2.89,13-9.25,24.46-16.46,35.62A230.73,230.73,0,0,1,712.94,423.51ZM87.08,376.31c-.85,1.1-1.5,1.82-2,2.62-12.89,20.25-20.91,42.28-22.53,66.73a18.94,18.94,0,0,0,2.33,10.89c12.35,22.57,28.35,41.94,46.77,59.24,1.26,1.18,2.56,2.31,4.54,4.09,2.5-27.31,6.71-53.15,23-75C117.69,425.18,100.22,402.73,87.08,376.31Zm250.54-19.42C327.33,351.49,244,369.25,227.23,381c4.49,9.77,5.15,10.87,14,15.59,10.64,5.66,21.36,11.23,32.31,16.19,9.92,4.5,20.2,8.12,29.56,11.83C314.81,401.61,326.16,379.35,337.62,356.89ZM462.18,443.1c1.47.24,3.7,1.08,5.85.9,24.55-2.05,48.82-6,72.49-13.25,10.91-3.34,21.64-7.31,32.49-11-3.37-8.64-5.77-12.19-12.67-15.65-15.41-7.72-31-15.14-46.59-22.38-5.77-2.67-11.91-4.46-17-6.34ZM297.76,155c0,.12,0-.2-.15-.35-12.89-11-26.82-19.92-43.24-23.87a10.93,10.93,0,0,0-4.76.1,109.52,109.52,0,0,0-40.22,18c-4.6,3.27-10.24,5.87-13.31,10.34-5.69,8.31-8.11,18.39-10.05,28.54,7.72.51,15.12.42,22.31,1.65a42.32,42.32,0,0,0,21.59-1.5,108.83,108.83,0,0,1,16.18-4.33c8.87-1.6,17-4.48,23.56-11.26a8,8,0,0,1,1.68-1.2Q284.52,163.07,297.76,155ZM501.4,644.29c13.44,11.38,27.24,20.45,43.62,24.43a14.77,14.77,0,0,0,6.34-.16c17.82-3.75,33.2-12.93,47.78-23.82,1.76-1.31,4-2.45,5-4.27a88.75,88.75,0,0,0,9.71-28.19c-11-1.14-21.66-2.28-32.31-3.31a10.61,10.61,0,0,0-3.56.63q-17.58,4.57-35.15,9.22a9.18,9.18,0,0,0-3.72,1.45C527.91,630.16,515.37,637.72,501.4,644.29ZM125,535.27l-.94,1.24c.92,3.24,1.72,6.52,2.78,9.72,9.05,27.36,25.57,49.24,46.1,68.07a16.22,16.22,0,0,0,8.61,3.9c20.19,2.34,39.45-2,58.19-9.59a11.05,11.05,0,0,0,1.71-1.32c-4.49-4.52-8.6-8.85-12.91-12.94a25.28,25.28,0,0,0-6.78-5.06A443.74,443.74,0,0,1,142,545C136.68,541.28,130.72,538.5,125,535.27ZM676.25,264.62c-1.32-4.67-2.13-8.07-3.23-11.36-9.41-28.22-26.74-50.5-48-69.78a6.49,6.49,0,0,0-4-1.61c-9.75,0-19.57-.55-29.24.41-11.35,1.13-22.26,4.74-33.28,9.6,4.17,4.3,7.88,8.45,11.93,12.19,2.87,2.65,5.92,5.47,9.38,7,28.54,12.53,55.81,27.42,81.32,45.85C665.32,260,670.44,261.72,676.25,264.62ZM325.39,243.75a67,67,0,0,1,21.52-18c4-2.19,4.72-4,2-8Q334.69,197.26,320,177.08a6.41,6.41,0,0,0-5.15-2c-14.7,1.87-29.32,4.58-44.06,5.94-11.16,1-16.32,9.29-22.91,17.3A232.32,232.32,0,0,1,325.39,243.75ZM475,556.26c-3.7,3.55-6.89,7.08-10.54,10A110,110,0,0,1,452.74,574c-3.44,2.1-4.32,4-1.92,7.47q14.31,20.71,29.09,41.08a6.38,6.38,0,0,0,5.13,2.06c16.44-2.23,32.85-4.7,49.25-7.2,1.7-.26,3.75-.62,4.9-1.75,4.41-4.36,8.53-9,13.27-14.18A232.22,232.22,0,0,1,475,556.26Zm-1.31-109.69c.68.68.84.95,1.06,1,19.81,8.2,38.47,18.53,55.21,32.46a4.52,4.52,0,0,0,4.22.19c13.12-7.72,26.23-15.45,39.12-23.57,4.81-3,9-7.1,13.73-10.84-4.21-8.33-8.17-16.19-12.22-24.21C542.08,435.5,508.5,443,473.65,446.57Zm-147.76-93.8c-20.12-8.74-39-19.14-56-33.3a4,4,0,0,0-3.6-.32,217.63,217.63,0,0,0-51.15,33c-.77.65-1.42,2.59-1.06,3.38,3.5,7.49,7.23,14.87,11,22.51C257.84,364.26,291.4,356.65,325.89,352.77ZM723.31,468.86a194.45,194.45,0,0,1-62.11,49.95c-2.05,1.06-2.2,2.26-1.87,4.36a111.24,111.24,0,0,1,.22,34.84c-.66,4.16-1.52,8.29-2.36,12.84,1-.48,1.6-.72,2.17-1.07a247.87,247.87,0,0,0,58.53-50,28.42,28.42,0,0,0,7.4-18.64A161.1,161.1,0,0,0,723.31,468.86Zm-580.63-240a22.4,22.4,0,0,0-2.05,1C121.29,242,103.47,256.06,88,273.27c-13.43,14.94-13.87,16.2-13.47,36.63.07,3.83.42,7.66.78,11.48.27,2.82.77,5.62,1.2,8.69a8.08,8.08,0,0,0,1.39-.81,195.29,195.29,0,0,1,60.94-48.42c2.14-1.09,1.88-2.49,1.8-4.44-.39-10-1-20.12-.73-30.16C140.05,240.52,141.67,234.85,142.68,228.86ZM243.13,199.7c-7.47-1.79-14.17-3.5-20.91-5a9.85,9.85,0,0,0-5.14.24c-10.28,3.67-20.48,7.61-30.76,11.28-2.68,1-3.48,2.64-3.45,5.37.12,9-.18,17.93.25,26.86.39,8,1.54,16,2.33,23.82L230.6,256C227.43,236,231.87,217.52,243.13,199.7ZM557.38,600.1c6.86,1.67,13.55,3.38,20.28,4.86a9.84,9.84,0,0,0,5.14-.22c10.29-3.66,20.51-7.56,30.78-11.27,2.59-.94,3.59-2.58,3.51-5.38-.36-12.07-.47-24.16-1-36.22-.21-5-1.22-10-1.86-14.89-7.92,1.38-15.12,2.84-22.38,3.85s-14.78,1.61-22.17,2.39C570.69,564.15,572.51,569.33,557.38,600.1Zm31.41-151.8c-17.44,14.69-34.95,26.47-54.24,35.36a6.59,6.59,0,0,0,.77,1.33,123.5,123.5,0,0,1,26.29,34.43c.45.88,2.77,1.47,3.9,1.11Q579.92,516,594.2,511c4.57-1.6,9-3.62,14.41-5.82ZM211.16,351.4c17.43-14.73,35-26.48,54.17-35.34-.15-.48-.16-.65-.25-.74-10.56-10.37-20-21.62-26.77-35.2-.4-.81-2.54-1.34-3.6-1-8.09,2.46-16.15,5-24.14,7.83-6.14,2.15-12.15,4.7-19.22,7.47C198,313.46,204.41,332,211.16,351.4ZM448,220.42c2.09.85,3.38,1.25,4.55,1.89,9.34,5.13,18.75,10.13,27.92,15.59,2.3,1.37,3.34,1.46,5.45-.28q18.82-15.56,38-30.66c3.86-3,8.26-5.28,12.5-8-.44-.42-.6-.7-.81-.75-22.28-5.64-44.56-11.29-66.88-16.78-.86-.21-2.59.85-3,1.79C459.82,195.4,454.08,207.62,448,220.42ZM263.22,600.76a13,13,0,0,0,1.89.94c21.88,5.52,43.76,11.08,65.68,16.42,1,.26,3-1,3.65-2.07,2.23-3.88,4.17-8,6.05-12,3.74-8.14,7.36-16.34,10.75-23.89L315.7,560.6A260.78,260.78,0,0,1,263.22,600.76Zm-23-324.13a117.74,117.74,0,0,0,26,35.19c2.08,2,3.66,2.4,6.36,1.3,16.85-6.9,34.25-11,52.47-10.39,2.32.07,4.63.25,6.65.37-3.66-5.71-8.7-10.76-10.37-16.82-2.53-9.22-8.71-12.12-16.05-14.55-4-1.33-8-2.77-12-4.06a8.67,8.67,0,0,0-4-.7C273.2,270.06,257.09,273.29,240.23,276.63ZM468.17,496.52c3.68,5.74,8.74,10.78,10.38,16.83,2.51,9.23,8.66,12.17,16,14.62,1.69.56,3.38,1.1,5,1.79a28.66,28.66,0,0,0,18.67,1.81c9.38-2.31,18.93-3.9,28.38-5.93,4.18-.89,8.3-2.09,12.81-3.25A112.14,112.14,0,0,0,532,486.54c-.81-.72-2.81-.6-4-.13C508.73,494.15,488.94,498.5,468.17,496.52ZM87.34,368l1.58-.18c17.24-23.19,38.88-41,62.31-55.8-3.42-9.91-6.65-19.24-9.91-28.67a2.45,2.45,0,0,0-.85.19c-1.7.87-3.4,1.77-5.08,2.7C114.15,298,95.33,312.9,79.74,332.12c-1,1.26-2.2,3.42-1.83,4.71C80.85,347.27,84.15,357.6,87.34,368ZM658.72,516.58c20.12-10.32,38.48-23.19,53.78-40.26,13-14.45,11.19-7.78,5.94-27-1.64-6-4.28-11.73-6.73-18.31-17.87,24.05-39.45,42-63,56.69C652.15,497.59,655.38,506.91,658.72,516.58ZM437.34,371.88c.23,1.48.48,2.84.66,4.22,2.28,17.29,4.73,34.55,6.75,51.87,1.13,9.76.84,9.69,9.69,12.6,2.67.88,4.21.5,5.6-2.09,7.72-14.34,15.71-28.52,23.26-43,3.54-6.77,6.3-14,9.76-21.78-8-2-15.19-5.17-22.41-5.21C459.74,368.48,448.82,370.61,437.34,371.88Zm-95.59-13.3c-13.8,20.61-24.71,43.18-34.53,67,10.23,2.93,19.55,7.78,30.15,4.87a34,34,0,0,1,6.07-.74c6.31-.56,12.62-1.07,19.11-1.6-.13-1.4-.18-2.37-.31-3.33-2.31-17-4.83-34-6.89-51.08-1.5-12.48-1.23-12.51-12.8-15.32C342.44,358.33,342.29,358.43,341.75,358.58ZM323.23,246.34c-.1-.23-.13-.39-.22-.47a216.94,216.94,0,0,0-74.82-44.07c-1-.33-3.2.77-3.67,1.79-3.41,7.39-6.71,14.85-9.65,22.46-1.12,2.92-1.24,6.27-1.68,8.73,14.32,3.29,28.32,5.62,41.78,9.84,12.3,3.86,24.08,9.6,36,14.82,5.27,2.3,6.11,2.17,8-3.18C320.15,253,321.73,249.8,323.23,246.34ZM476.75,553.88A228.15,228.15,0,0,0,551.5,598c2.36.83,3.37-.33,4.12-2,3.27-7.47,6.6-14.91,9.53-22.52,1.11-2.9,1.18-6.23,1.66-9-11.08-2.18-21.55-3.89-31.86-6.35A191.82,191.82,0,0,1,488.43,540c-2.43-1.3-5.1-2.69-6.7,1.19S478.54,549.32,476.75,553.88ZM391.08,139.33c1.45,9.71,2.74,19,4.35,28.16.18,1,2.11,2.36,3.33,2.49,6.63.68,13.31.78,19.92,1.54,14.44,1.68,28.85,3.7,43.3,5.4,1.41.16,3.66-.45,4.33-1.52,4.66-7.48,9-15.18,13.71-23.25A277.78,277.78,0,0,0,391.08,139.33ZM320,647.54a275.62,275.62,0,0,0,88.94,12.74c-1.4-9.2-2.86-17.87-4-26.58-.38-3.05-1.53-4-4.35-4.17-6.78-.3-13.57-.65-20.31-1.44-14.17-1.65-28.3-3.65-42.46-5.31-1.38-.17-3.58.6-4.27,1.7C329,631.85,324.69,639.43,320,647.54Zm-48.07-331c1.06,1,1.6,1.64,2.22,2.15,17.87,14.59,37.81,25.12,59.1,32.95,5.5,2,8.92.17,13.1-4.22,5-5.24,6.37-10.75,6-18.17-.43-8.17-1.57-14.67-9.61-17.82-.74-.29-1.27-1.09-2-1.47-2.25-1.18-4.45-2.93-6.83-3.28C312.51,303.57,292.26,308.37,271.89,316.53ZM527.67,483.24c-.28-.65-.3-.82-.39-.89-18.35-15.65-39.18-26.55-61.44-34.49-4.11-1.47-8.1-.58-11.82,3.71-5.29,6.1-6.7,12.17-6.26,20.23.41,7.57,2.14,12.66,8.85,16.17,4.06,2.13,7.4,5.3,12.38,5.7C489.37,495.29,508.71,491.1,527.67,483.24ZM259.87,128.49c15.12,5.37,28.28,13.94,40.52,24.26a3.67,3.67,0,0,0,3.18.43A237.74,237.74,0,0,1,353.9,139.3c1-.16,2.47-1.1,2.64-1.93,1.58-7.46,2.91-15,4.43-23.06C326.63,115.27,293,119.63,259.87,128.49ZM540,671.18c-14.84-5.34-27.82-13.74-39.91-23.84a4.52,4.52,0,0,0-3.87-.75,231.15,231.15,0,0,1-50,13.75c-1,.17-2.57,1-2.75,1.85-1.61,7.56-3,15.18-4.49,23.22C473.3,684.38,506.86,680.07,540,671.18Zm-238.68-.39c19.62,7.17,102.23,17.46,113.61,14.07-1.78-7.06-3.57-14.12-5.45-21.56-6.37,0-12.49.24-18.58,0A280.45,280.45,0,0,1,320.22,651a4.27,4.27,0,0,0-3.74,1.11C311.35,658.18,306.42,664.42,301.27,670.79ZM385,114.37c1.69,6.9,3.19,13.5,5,20,.25.88,2.22,1.74,3.39,1.74a282.68,282.68,0,0,1,86.09,12.54,4,4,0,0,0,3.55-.66c5.27-6.23,10.35-12.64,15.47-19C483.74,122.51,405.63,112.33,385,114.37Zm-30.91,466.7L336.3,619.88l67.54,7.48c-1.43-14.28-2.74-27.34-4-39.58Zm42-408.79c1.46,14.41,2.77,27.49,4,39.63l45.7,6.72c5.62-12.2,11.54-25,17.88-38.83ZM505.68,340.42c-11.25-7.55-22.75-13.12-35.66-14.91a14.92,14.92,0,0,0-5.55.68c-8,2.06-16,4.57-24.08,6.26-5,1-7.83,4.57-10.28,8.29-.92,1.39.64,4.65,1.21,7,.5,2.06,1.38,4,1.76,6.11.43,2.36,1.64,3.05,3.83,3.47,10.94,2.15,21.85,4.56,32.77,6.85a9.09,9.09,0,0,0,3.59.37c7.85-1.68,15.69-3.42,23.48-5.38a5.36,5.36,0,0,0,3-2.89C501.84,351.21,503.63,346,505.68,340.42ZM294.29,459.31c9.5,6.3,19,11.05,29.39,13.76a24.58,24.58,0,0,0,15.49-.64,120.36,120.36,0,0,1,20.52-5.23c4.9-.89,7.57-4.49,10-8,.94-1.37-.48-4.61-1-6.95-.46-2.07-1.33-4.05-1.72-6.13-.46-2.49-1.77-3.33-4.1-3.79-10.95-2.15-21.84-4.57-32.76-6.86a7.92,7.92,0,0,0-3.18-.31c-7.85,1.68-15.68,3.43-23.48,5.33a4.82,4.82,0,0,0-3,2.32C298.26,448.11,296.38,453.58,294.29,459.31Zm-26.82,84.14-56.77,9.7c0-.26-.12.33,0,.84a95.1,95.1,0,0,0,16,32.82,4,4,0,0,0,1.48,1.43q15.22,5.91,30.49,11.71Zm265-287.24,56.81-9.69c0,.22.07-.37-.06-.89a93.25,93.25,0,0,0-16.06-32.73,4.84,4.84,0,0,0-1.79-1.65c-10-3.87-20.06-7.66-30.14-11.48Q536.73,229,532.5,256.21Zm-350.6,7.28c-.94-18.08-1.88-36-2.84-54.49-10.17,5.36-20.36,10.69-30.49,16.12a4.56,4.56,0,0,0-2.07,2.46,105.83,105.83,0,0,0-2.72,50Zm439,327.17c10.14-5.34,20.34-10.63,30.43-16.12a5.82,5.82,0,0,0,2.39-3.62c1.47-7.36,3.11-14.72,3.89-22.17a84.12,84.12,0,0,0-1.53-26.58l-38,14.05C619,554.17,620,572,620.94,590.66ZM411.39,371.39c-.27.69-.64,1.59-1,2.5-5.92,15.25-4.92,31.17-4,47,.56,9.39.74,9.38,9.44,10.63.68.1,1.34.23,2,.37l25.24,4.92c-2.86-22.07-5.67-43.64-8.5-65.46Zm-54.49-8.28c2.84,21.84,5.64,43.38,8.49,65.33,7.18,0,13.28-.22,19.37.11,2.31.13,3.24-.54,3.71-2.64C390,419,392,412.19,393,405.21c1.5-10.56,3.55-21.2,1.19-31.92-.33-1.5-1.4-3.79-2.43-4C380.6,367.11,369.35,365.26,356.9,363.11Zm219.42-53.84c-17.75-5.55-35.06-8.72-52.85-8.55-1.07,0-2.69,1.63-3.08,2.84-3.56,10.88-6.82,21.87-10.37,32.76-.73,2.23-.25,3.28,1.48,4.51,3.14,2.23,6,5,9.19,7,1.32.85,3.69,1.33,4.93.67,8.32-4.47,16.7-8.9,24.62-14.09A101.76,101.76,0,0,0,576.32,309.27ZM224.17,489.84c.26.44.31.63.41.67A160.36,160.36,0,0,0,276.64,499a3.79,3.79,0,0,0,2.73-2.2q5.47-16.93,10.56-34a4.46,4.46,0,0,0-1.32-3.61c-2.88-2.58-6.14-4.71-9-7.3-2-1.77-3.71-1.89-5.83-.62-9.17,5.5-18.63,10.55-27.46,16.58A89.19,89.19,0,0,0,224.17,489.84ZM182.51,621.22l-.44,1.91c24.52,16,51.36,26.57,79.09,36.5-.22-1.54-.39-2.47-.49-3.4-.88-8.75-2.45-17.5-2.4-26.24,0-6.53-1.26-11.15-7-14a13.13,13.13,0,0,1-3.84-3.14c-2.22-2.52-4.44-2.22-7.27-1.06-11.68,4.77-23.72,8.38-36.26,9.36C196.79,621.67,189.63,621.22,182.51,621.22ZM617.43,178.29c-9.18-10.1-67-36.77-78.13-37.32.83,7.83,2.75,15.78,2.23,23.56-.7,10.53,2.38,17.76,11.29,22.68,2.2,1.22,3.67,2.07,6.2,1,12.3-5.08,25-8.82,38.22-9.86C603.93,177.85,610.7,178.29,617.43,178.29Zm-540.5,102a11.64,11.64,0,0,0,1.72-1c18.15-22,39.75-39.45,63.66-54a6.53,6.53,0,0,0,2.58-2.55c4.19-9.19,8.25-18.45,12.43-27.87-18.72,4.22-36.12,12.13-50.59,25.87C90.17,236.43,83.09,257.57,76.93,280.26ZM642.61,604.91c20.69-4.82,39.91-13.5,54.59-29.89,13.72-15.31,20.79-34.67,25.61-55.53a9.33,9.33,0,0,0-1.55,1c-18.26,22.07-40,39.63-64.06,54.23a6.53,6.53,0,0,0-2.32,2.78C650.8,586.46,646.83,595.46,642.61,604.91Zm-487.2-292.4c10.85,20.83,24.77,37.59,41.25,52.19,3.72-3.44,7-6.68,10.48-9.58,2-1.68,1.93-3.1,1-5.42q-7.17-18.76-14-37.7c-1.88-5.29-3.24-10.79-5.06-16.92ZM603.33,434.94c-3.43,3.18-6.44,6.26-9.75,8.95-2.43,2-2.75,3.6-1.58,6.74,5.8,15.59,11.25,31.33,16.77,47,.74,2.08,1.22,4.26,2,7l33.73-17.48C633.94,466.42,619.86,449.89,603.33,434.94ZM402.79,587.17c1.33,13.14,2.66,26.33,4,39.87h37.41c.45-6.12,1-11.89,1.28-17.68q.67-13.4,1.07-26.81c.13-4.31-.76-4.87-4.39-3.68a114.19,114.19,0,0,1-12.9,3.86C420.78,584.4,412.19,585.62,402.79,587.17Zm135-384-1.18-.56a245.66,245.66,0,0,0-51.08,39.43,58.43,58.43,0,0,1,17.4,26.75c8.09-3.18,15.75-6.09,23.3-9.28A5.76,5.76,0,0,0,529,256c1.27-5.23,2.32-10.53,3.17-15.86C534.13,227.87,535.91,215.53,537.76,203.2ZM297.19,530.84c-8.22,3.22-15.89,6.1-23.43,9.32a6,6,0,0,0-2.87,3.94q-3.45,18.39-6.46,36.88c-.85,5.2-1.26,10.49-1.92,16.11,12.56-5.36,45-30.45,51.56-39.77A57.49,57.49,0,0,1,297.19,530.84Zm58.22-358.1c-.69,15.4-1.45,30.68-2,46-.09,2.52,1.43,3.23,3.89,2.43a159.52,159.52,0,0,1,17.22-5c7.29-1.49,14.71-2.24,22.71-3.4-1.31-12.65-2.59-25.33-4-38a2.88,2.88,0,0,0-2.06-1.9C379.48,172.7,367.83,172.74,355.41,172.74ZM73.22,340.6a142.82,142.82,0,0,0-23.71,52.95c-1.9,8.73-2.87,17.29.32,26,3,8.26,5.75,16.64,8.61,25,1.76-5.55,2.37-10.77,3.34-15.91A146.26,146.26,0,0,1,83.27,376c.87-1.34,1.74-3.55,1.28-4.85C81,361,77.15,351.06,73.22,340.6ZM726.71,458.93c.43-.54,1-1.15,1.42-1.81,9.88-14.34,17.36-29.89,21.33-47.11,1.43-6.2,3.57-12.77,2.87-18.84-1.44-12.53-6-24.32-11.64-36.58-.27,1.62-.42,2.26-.49,2.91-2.41,24.6-10.8,46.83-24.07,67.19a6.59,6.59,0,0,0-.32,5C719.26,439.36,723,449,726.71,458.93Zm-371,118.24a137.91,137.91,0,0,0,43.82,6.28c-.85-14.76-1.68-29-2.52-43.41l-26.71-2.64Zm88.45-354.68a139.13,139.13,0,0,0-43.75-6.25c.84,14.7,1.66,28.94,2.48,43.35,8.51.9,16.71,1.83,24.93,2.55a3.32,3.32,0,0,0,2.57-1.77C435,248,439.48,235.49,444.18,222.49Zm24.31-45.2,69.7,17.42c.21-4.06.59-8.29.55-12.5a4.79,4.79,0,0,0-2-3.21,212.34,212.34,0,0,0-51.15-24.92,3.89,3.89,0,0,0-3.56,1.24C477.39,162.5,473,169.85,468.49,177.29ZM261.88,605c-.23,3.94-.65,8-.6,12.12a5.28,5.28,0,0,0,2.13,3.58c15.82,10.77,32.93,18.73,50.83,24.86,1,.34,2.94,0,3.42-.76,4.75-7.4,9.27-14.95,13.81-22.39ZM274,516.29l-53.24-21.54a73.54,73.54,0,0,0-11.87,33c1.74.2,3.06.41,4.39.5a201.61,201.61,0,0,0,52.8-3.33C272.76,523.64,272.75,523.57,274,516.29Zm317.14-244.4c-1.47-.16-2.39-.27-3.31-.35a197,197,0,0,0-53.91,3.22c-7.21,1.41-7.2,1.46-7.81,8.7L579.25,305A75.05,75.05,0,0,0,591.14,271.89Zm-234.56-47.3c4.57,9.55,9.23,18.4,13.05,27.64,1.95,4.71,4.22,6.78,9.23,6.47,6.84-.43,13.72-.11,21.06-.11q-1.23-20.76-2.49-42.33C383.07,216.91,369.67,219.18,356.58,224.59Zm45.95,358.87c14.45-.75,28-2.88,40.72-8.39-5.11-10.92-10-21.39-14.94-31.81a3.53,3.53,0,0,0-2.31-1.88c-8.51-.13-17-.08-25.93-.08C400.86,554.84,401.68,568.83,402.53,583.46ZM538.83,175c.26-11-.41-22.58-3.4-33.88a5,5,0,0,0-2.93-2.91c-8.85-2.73-17.76-5.28-26.69-7.73-1.15-.32-3-.26-3.7.48-5.76,6.1-11.33,12.4-16.63,18.28ZM261.17,624.74c-.34,11.1.4,22.77,3.49,34.18a5.08,5.08,0,0,0,3.14,2.73q13.09,4,26.3,7.59c1.23.33,3.23.09,4-.76,5.68-6,11.15-12.24,16.33-18ZM677,220.34c-.06.27-.23.6-.14.8,6,14.31,8.07,29.38,8.13,44.89,0,1.36,1.44,3.11,2.66,4,8.23,6,17,11.33,24.79,17.83,7.25,6,13.6,13.21,19.72,19.28C728.64,284.23,698.78,236.78,677,220.34ZM67.66,490.77c3.68,24.7,34.74,73.88,55,88.19-1.86-7.15-4.36-14.53-5.6-22.14-1.27-7.79-1.24-15.82-1.94-23.72a4.25,4.25,0,0,0-1.77-2.89A147.08,147.08,0,0,1,67.66,490.77ZM319,557.89a102.25,102.25,0,0,0,34,18.28c4.82-13.1,9.51-25.87,14.37-39.09-9-1.46-17.11-2.83-25.27-4a3.74,3.74,0,0,0-2.69,1.39C332.69,542.07,326.06,549.78,319,557.89ZM432.6,262.6c8.86,1.45,16.76,2.79,24.68,4a3.63,3.63,0,0,0,2.87-.89c6.9-7.81,13.68-15.72,20.75-23.89-10-8.28-21.18-14.05-33.91-18.31ZM153.7,310.06l34.73-17.93c-1.72-8.21-3.45-16.45-5.41-25.79l-39.38,14.79C147.26,291.54,150.48,300.79,153.7,310.06ZM656.37,518.6c-3.66-10.48-6.9-19.74-10.12-28.94l-34.71,17.92C613.3,516,615,524.1,617,533.29Zm-235.68,179c-2.9-4-2.49-9.13-8.9-9.18a465.5,465.5,0,0,1-108.26-13.67c-5.71-1.41-9.41.55-13.71,4.21C332.55,692.21,375.74,698.09,420.69,697.57ZM380,102.6c2.52,2.87,1.13,8.54,7.29,8.61a477.33,477.33,0,0,1,109.06,13.71c5.73,1.41,9.54-.35,13.75-4.15A403.82,403.82,0,0,0,380,102.6Zm-77.32,326L238.56,400c10.73,16.28,23.11,31.74,37.84,45.06a3.36,3.36,0,0,0,2.88.26q8.91-3,17.72-6.36a4.52,4.52,0,0,0,2.36-2C300.69,434,301.75,430.91,302.66,428.57Zm259.48-27.69c-11.37-17.36-23.73-32.69-38.32-46-.75-.68-2.5-.69-3.58-.34-5.69,1.89-11.32,3.94-16.93,6.07a5.15,5.15,0,0,0-2.68,2.21c-1.38,2.89-2.44,5.95-3.61,8.92,11.17,4.5,22.16,8.57,32.86,13.35S550.89,395.35,562.14,400.88ZM68.32,299.7c-15.76,17.44-30,76.75-22.47,95.09.15-.22.41-.42.46-.66,4.15-20.65,12.85-39.09,24.75-56a7.92,7.92,0,0,0,1.18-4.94C71,321.91,69.63,310.68,68.32,299.7ZM731.68,500c16.3-19.68,29.46-74.44,22.55-95-.18.18-.49.34-.53.55-4.23,20.78-13,39.35-25.05,56.32a6.09,6.09,0,0,0-1.08,3.82C728.86,477.23,730.31,488.73,731.68,500ZM355.83,142.32a210,210,0,0,0-50.61,13.74c4.43,4.87,8.56,9.52,12.83,14a4,4,0,0,0,2.89,1c10.55-.58,21.09-1.28,31.94-2C353.84,160.42,354.79,151.73,355.83,142.32Zm88.38,515c17.69-2.67,34.49-7,50.36-13.7-4.36-4.88-8.48-9.55-12.71-14.13a3.54,3.54,0,0,0-2.52-1c-10.67.59-21.34,1.29-32.25,2C446.14,639.39,445.21,648.08,444.21,657.35ZM235.9,275c-1.17-3.69-2.66-7.24-3.36-10.95s-2.43-4.41-5.63-4c-7.28.91-14.62,1.37-21.89,2.41-6.15.89-12.22,2.33-18.93,3.65,1.76,8.56,3.4,16.55,5,24.64ZM564.1,524.67c1.29,4.1,2.77,8.06,3.73,12.16.59,2.55,1.69,3.1,3.95,2.84,7.69-.88,15.42-1.39,23.07-2.47,6.25-.87,12.43-2.35,19.09-3.65-1.82-8.68-3.48-16.64-5.15-24.63Zm-152,135.93c9.27-.84,18-1.58,26.77-2.52a3.4,3.4,0,0,0,2.2-2.32c1.11-8.24,2-16.52,3-25.22H407.25C408.86,640.53,410.43,650.27,412.09,660.6ZM580,214.84c3.92,9.54,8.13,19.19,11.81,29.06,1.08,2.88,2.12,3.9,5.06,3.86a190,190,0,0,1,47.29,5.38c2.26.54,4.51,1.12,6.76,1.68C628.48,238.27,604.4,225.41,580,214.84Zm-360,370c-3.91-9.49-8.13-19-11.67-28.72-1.19-3.31-2.45-4.27-5.67-4.22a186.86,186.86,0,0,1-49.6-6.06c-1.29-.33-2.62-.53-3.93-.79C171.54,561.43,195.57,574.29,220,584.81ZM355.85,169.24h36.87c-1.46-9.07-2.9-17.74-4.22-26.42-.38-2.55-1.42-3.65-4-3.39-7.57.74-15.17,1.25-22.73,2.06-1,.11-2.71,1.28-2.83,2.15C357.77,152,356.88,160.43,355.85,169.24Zm-158.76-18-.85-.89c-31.08,14.61-59.51,33.24-82.56,60a128.54,128.54,0,0,1,45.41-19.29,6.61,6.61,0,0,0,3.5-2.51A180.52,180.52,0,0,1,191,158.78C193.42,156.76,195.09,153.81,197.09,151.29ZM686.54,589.44c-7.53,4-14.57,8.35-22.09,11.47s-15.81,5.09-23.71,7.68a6.87,6.87,0,0,0-3.22,2.23,178.27,178.27,0,0,1-29,30.46c-2.23,1.88-3.68,4.76-5.49,7.18l.85.75C634.84,634.65,663.18,616.09,686.54,589.44ZM487.88,277.23c0-.38-.07-.76-.11-1.13-8.46-1.78-16.9-3.67-25.41-5.22-1.17-.21-3.07.88-3.87,2-5.5,7.57-11,15.17-16.1,23-4.16,6.42-7.8,13.21-11.6,19.72,1.13,1.44,1.92,2.41,2.67,3.41s1.34,1.89,2.12,3A194.76,194.76,0,0,1,487.88,277.23ZM364.27,477.86c-14.74,18.23-32.5,32.83-52.25,45.19,8.08,2.21,16,3.82,23.91,5.69,2.76.66,4.55,0,6.14-2.41,7.76-12,15.51-24,23.51-35.74,3.08-4.53,3.7-8.42-.64-12.28A5.94,5.94,0,0,0,364.27,477.86ZM306.93,261.11A193.81,193.81,0,0,0,232.44,239c.33,5.14.74,9.5.82,13.86.06,3.23,1.43,3.89,4.32,3.88,15.27,0,30.52,1.07,45.28,5.16C291.19,264.19,298.94,262.41,306.93,261.11Zm260.6,299.7c-.32-5.24-.7-9.6-.81-14-.08-3.17-1.4-3.91-4.32-3.9-15.28.08-30.52-1.08-45.3-5.13-8.28-2.27-16.05-.67-25.3.54A204.82,204.82,0,0,0,567.53,560.81ZM528.4,272.86c21.23-4.75,41.89-5.65,63.53-4.19-.46-6.22-.88-11.86-1.31-17.7A206,206,0,0,0,533,260.7a4.18,4.18,0,0,0-2.36,2.44C529.73,266.07,529.22,269.12,528.4,272.86ZM208,531c.46,5.76.72,10.82,1.4,15.81.11.77,2.21,1.81,3.35,1.77a200.37,200.37,0,0,0,53.73-9.4c1-.31,2.33-.91,2.57-1.69,1-3.29,1.65-6.7,2.54-10.58A217.72,217.72,0,0,1,208,531ZM400,306c0-14.08,0-27.57-.09-41.06,0-.85-1.23-2.36-2-2.41-7.82-.54-15.65-.84-23.66-1.21l15.55,46.72ZM400,493.68c0,13.86,0,27.48.08,41.1,0,.81,1,2.27,1.66,2.31,7.93.53,15.88.86,24,1.25-5.32-16-10.43-31.36-15.54-46.74ZM507.18,336.37c3.52-11.32,7.22-23.22,11.24-36.13-7.14.8-13.2,1.32-19.21,2.25-1.68.26-3.34,1.52-4.75,2.67-6.17,5-12.23,10.22-18.36,15.32a16.41,16.41,0,0,1-2,1.37ZM326,477.84,292.8,463.33c-3.5,11.23-7.2,23.14-11.25,36.13,7.79-.9,14.49-1.65,21.19-2.48a2.89,2.89,0,0,0,1.68-1.08C310.44,488,318.12,482.29,326,477.84Zm130.2-208.35c-7.59-1.16-15.3-2.39-23-3.45-.61-.09-1.76.88-2,1.59q-5.87,19.49-11.48,39.06a3.14,3.14,0,0,0,1,2.67c2.52,1.55,5.2,2.81,7.35,3.93Zm-40,38.13,12.38-42.38-24.82-2.37v42.87ZM368.47,534.05c4-13.9,7.94-27.47,11.74-41.08a3.1,3.1,0,0,0-1-2.67c-2.51-1.56-5.2-2.8-7.29-3.89l-28.22,43.82Zm15.25-41.95c-4.13,14.11-8.2,28-12.39,42.36l24.83,2.35V493.94Zm63.16,46.15c.74-10,.44-9.77-4.37-17-7.16-10.85-13.85-22.05-20.74-33.09-.55-.88-1.14-1.74-1.69-2.57a29.6,29.6,0,0,0-4.59,3.33c-.84.89-1.81,2.66-1.5,3.6q7,21.78,14.48,43.4a4,4,0,0,0,2.83,2.28C436.42,538.38,441.56,538.25,446.88,538.25ZM353.16,261.43c-.93,6.62,0,11.59,3.87,16.74,7,9.38,12.9,19.65,19.2,29.59,1.31,2.08,2.33,4.37,3.5,6.59a33,33,0,0,0,4.92-3.69c.82-.88,1.63-2.68,1.31-3.67q-7-21.57-14.41-43a4.09,4.09,0,0,0-2.71-2.45C363.7,261.3,358.54,261.43,353.16,261.43ZM152.25,427.54c17.78-18.87,38.8-32.91,61.94-44.5l-17.38-13.79C182.59,382.43,158.47,413.77,152.25,427.54Zm495.39-55.19c-17.85,18.74-38.81,32.8-61.89,44.27L603,430.4C615.14,420.09,639.42,388.76,647.64,372.35Zm33-105.83,1.1-.36a104.08,104.08,0,0,0-6.87-42c-2.72-6.94-6.31-13.05-12.46-17.42-9.2-6.53-18.16-13.44-27.25-20.15a11.62,11.62,0,0,0-2.22-1c6.92,8.16,14.27,15.81,20.42,24.4a179.78,179.78,0,0,1,16.16,27C674,246.42,677,256.65,680.59,266.52ZM166.27,614.93l1.09-1.26c-.53-.61-1-1.25-1.59-1.82-21.23-21.18-37.61-45.48-44.75-75.78-.26-1.11-1.25-2.05-1.89-3.06a85.33,85.33,0,0,0,4.76,38.74c2.07,5.5,3.93,12,7.9,15.61C142.71,597.24,154.7,605.83,166.27,614.93Zm-51.7-87.78,1.41-1.06c-1-1.51-1.75-3.31-3-4.49-18.79-17.27-35.38-36.51-48.31-59-.5-.87-1.11-1.65-2.2-3.25.17,3.28.23,5.55.43,7.79a68.72,68.72,0,0,0,.91,7.61c.56,2.74.86,5.83,2.29,8C78.56,501.94,95.13,516.3,114.57,527.15Zm623-187c-.72-11.36-.43-22.08-8.49-30.36-1.45-1.48-2.6-3.28-3.95-4.88a125.38,125.38,0,0,0-40.45-32,8.56,8.56,0,0,0,2.19,4.94,255.43,255.43,0,0,1,36.23,40.31C728,325.12,732.41,332.35,737.55,340.19Zm-415-166.11,27.82,39c.74-13.47,1.48-26.73,2.25-40.68Zm15.16,358.24c-9.12-2-17.35-3.34-25.26-5.77-5-1.54-8.59,0-12.51,2.8,2.8,10.76,8.65,19.11,16.91,26.35Zm111.94,54.25c-.73,13.38-1.46,26.71-2.22,40.72l30-1.77ZM500,270.2c-2.73-10.64-8.7-18.82-16.77-26.31l-20.92,23.38c2,.52,3.1.86,4.24,1.11,6.79,1.49,13.69,2.55,20.32,4.58C491.83,274.47,495.85,273.8,500,270.2ZM434.49,697.05c38.41-2.06,75.61-8.91,111.33-23.44a15.25,15.25,0,0,0-3.92.66,445.51,445.51,0,0,1-96.67,13.86c-5.7.2-9.2,1.58-10.52,7.46C434.65,695.85,434.63,696.12,434.49,697.05Zm-69-594.42C327.17,104.7,290,111.51,254.3,126a2.53,2.53,0,0,0,1.57-.07,447.21,447.21,0,0,1,98.77-14.42C360.77,111.34,364.31,109.7,365.53,102.63ZM387.34,136c-1.82-6.8-3.36-13.1-5.28-19.28a4.67,4.67,0,0,0-3.34-2.6,96.28,96.28,0,0,0-11.77,0c-.89,0-2.35.76-2.51,1.43-1.79,7.46-3.38,15-5.11,22.84Zm53.32,525.4-27.79,2.32c.94,4.12,1.76,7.94,2.71,11.73,2.61,10.33,2.63,10.33,12.65,10.27a31.57,31.57,0,0,0,4.87-.12c.91-.15,2.3-.83,2.47-1.53C437.34,676.7,438.91,669.3,440.66,661.38Zm2.39-213.07H412.51a75.55,75.55,0,0,0,12,22.55c.54.72,2.61,1,3.48.49,3.56-2,6.88-4.46,10.38-6.6C444.68,460.89,445.19,455.23,443.05,448.31Zm-54.42-97c-4.61-7.95-8.68-15.2-13.07-22.24-.51-.8-3.17-1.1-4.12-.47-4.67,3.08-9.18,6.44-13.57,9.92-2,1.59-2.81,9.73-1.37,11.82a2.82,2.82,0,0,0,2,.93C368,351.36,377.48,351.34,388.63,351.34ZM618.19,608.51c6.06-.77,11.95-1.47,17.84-2.31a3,3,0,0,0,1.93-1.37c4.68-8.38,9.28-16.81,13.91-25.23l-1.14-.86c-6.78,3.47-13.28,7.93-20.41,10.16-9.26,2.88-12.64,8.82-12.3,18.16C618,607.2,618.05,607.34,618.19,608.51ZM148.72,221c10.74-5.26,20.55-10.06,30.35-14.91a2.43,2.43,0,0,0,1.29-1.43c.63-4.26,1.12-8.54,1.74-13.51-6.45.81-12.23,1.5-18,2.31a3.29,3.29,0,0,0-2,1.31A109.67,109.67,0,0,0,148.72,221Zm201.15,7.15c-7.52,2.71-17.63,10.88-21.92,17.75,3.21,3.15,6.82,6,9.62,9.61,3.6,4.61,7.72,3.32,12.3,2.73ZM472.24,554c-3.45-3.38-6.88-6.08-9.5-9.46-3.59-4.62-7.76-4.06-12.6-2.93V572C458.9,567.38,466.31,562,472.24,554ZM267,178.46l48.37-7.11c-4.62-4.51-8.72-8.58-12.94-12.52a2.82,2.82,0,0,0-2.55-.44A141.73,141.73,0,0,0,267,178.46ZM484.65,628.35c4.58,4.5,8.62,8.64,12.88,12.5.69.62,2.63.46,3.59-.1,9.73-5.64,19.38-11.42,29-17.22a16.76,16.76,0,0,0,2.37-2.22ZM501.17,285.5l-1.24-.76c-21.65,8.72-41.1,21-57.46,38.48a124.8,124.8,0,0,1,50.31-22.73,3.1,3.1,0,0,0,2.06-1.14C497,294.77,499.08,290.12,501.17,285.5ZM357.64,476.89c-8,4.56-15.77,9.85-24.18,13.55s-17.54,5.86-26.33,8.73a4,4,0,0,0-2,1.23c-2.81,4.34-5.09,8.92-5.51,14.73C321.69,506.25,341.09,493.86,357.64,476.89Zm-77-211.82.14-1.54L235.26,259l-.77,1.46L239,274.3ZM519.26,534.64l-.21,1.52L566,540.84c-2.06-6.28-3.61-11-5.08-15.45Zm-40.71-13.83c-2.66-9.07-7.59-15.45-12.95-21.7-4.48-5.23-10.84-4.4-17.2-7.55.82,4.32.36,8.78,2.23,10.56C458.65,509.73,468,515.49,478.55,520.81ZM322.74,278.59l-.87,1.25c5.38,15.51,14.29,26.63,29.76,27.13-.92-3.49-.76-8.11-2.8-9.74C340.5,290.52,331.49,284.72,322.74,278.59ZM480.61,536.42,450,513.24c-.57,7.24-1,14.35,5.49,19.45,1.18.92,2,2.32,3.15,3.32a4.76,4.76,0,0,0,2.72,1.47C467.39,537.27,473.44,536.84,480.61,536.42ZM319.36,263.28l30.36,22.94c2.55-9.3-1.16-16.23-7.76-22a11.7,11.7,0,0,0-1.18-1.16,4.5,4.5,0,0,0-2.16-.93C332.56,262.43,326.5,262.84,319.36,263.28Zm126.35,309.8,1.07-.32V541.67H430.44Zm-91.4-346.46-1.21.46v31.07h16.45C364.27,247.24,359.29,236.93,354.31,226.62Zm167.34,59.3c-4.3-1.32-8.5-3-12.85-3.75-1.56-.27-4.41,1.24-5,2.7-1.89,4.48-3,9.32-4.45,14.27,3.44-.34,7-.78,10.62-1,9.61-.65,9.62-.62,11.7-10.61A13.29,13.29,0,0,0,521.65,285.92ZM277.94,513.64c4.59,1.43,8.66,3.12,12.89,3.8,1.68.27,4.71-1.2,5.37-2.72,1.94-4.44,3-9.3,4.43-14.12l-19.74,1.78C279.92,506.09,279,509.72,277.94,513.64ZM391.47,366.45c-1.7-11.66-1.7-11.66-11.47-11.89H356.93l-.82,1.09c1,1.35,1.74,3.62,2.94,3.9C369.6,362,380.22,364.11,391.47,366.45ZM443,444.84c.76-3.39-.5-4.66-3.38-5.19-7.35-1.37-14.64-3.08-22-4.53-3-.59-6-.86-9.45-1.35.91,3.4,1.47,6,2.37,8.55.36,1,1.45,2.4,2.23,2.41C422.78,444.9,432.8,444.84,443,444.84Zm5.69-122c6.3-.32,12.4.48,17.81-1.17,9.56-2.92,17.52-9.14,25.19-17.74A116.2,116.2,0,0,0,448.65,322.79ZM309.12,494.62a98.41,98.41,0,0,0,42.71-18.18c-4.15.48-7.39,1.39-10.53,1.12-9.13-.81-16.2,3.83-23.08,9C315,489,312.15,491.91,309.12,494.62ZM198.83,366.91c5.54,4.37,10.61,8.18,15.46,12.27,2.86,2.41,5.29,2.28,7.9-.32-3.77-7.51-7.53-15-11.54-23Zm390.5,76.91,11.78-11.06c-5.44-4.28-10.61-8.15-15.54-12.32-2.89-2.43-5.23-2.14-7.78.4Zm28.22,167.74c-2.33,8-4.59,15.66-7,24.07a157,157,0,0,0,24-25.8ZM189.24,164.61l-.59-.61-23,24.7.77,1c4.94-.48,9.9-.89,14.83-1.5a2.8,2.8,0,0,0,1.84-1.7C185.19,179.24,187.2,171.92,189.24,164.61Zm333,132,40.87,5.07.17-.37L524.91,286.7C523.87,290.58,523,293.69,522.24,296.65ZM236.89,498l-.38.3L275.08,513c1-4,1.86-7.22,2.58-10ZM377,318.48l.91-.39c-6.19-14.4-14.75-27.28-24.68-40.47,0,3.54-.12,6,0,8.49.11,1.78,0,4,1,5.21C361.71,300.49,369.4,309.45,377,318.48ZM47,423.12a107.4,107.4,0,0,0,12.82,48.53c0-6.54.78-13.39-1-19.37C55.82,442.39,51.14,433.07,47,423.12Zm399.71,98.22a81.45,81.45,0,0,0-.08-8.61,10.72,10.72,0,0,0-1.78-5.23c-6.57-8.48-13.32-16.8-20-25.15a24.31,24.31,0,0,0-1.95-1.9C422.67,486.39,438,512.38,446.72,521.34ZM740,327.9c-.15,11.65.82,22.8,6.73,32.85a32.56,32.56,0,0,1,2.12,5.51c1.14,3.19,2.25,6.4,3.68,10.47C753.62,363.72,746.8,337.7,740,327.9ZM272.18,537.73c8.16-3.46,15.24-6.36,22.2-9.55.93-.42,1.74-2.32,1.74-3.53,0-3.63-3-3.49-5-3-4.92,1-9.74,2.6-14.54,4.14a3.73,3.73,0,0,0-2.11,2.2C273.61,530.74,273.09,533.64,272.18,537.73Zm255.67-275.8c-8.12,3.45-15.2,6.33-22.13,9.55-1,.47-2,2.66-1.81,3.87.51,3.53,3.27,3.22,5.68,2.59,4.47-1.15,8.92-2.46,13.33-3.89a4.34,4.34,0,0,0,2.57-2.19C526.4,269.08,526.88,266.16,527.85,261.93ZM298,519.14c4.75,2.14,8.11,3.44,12.3.87a213.41,213.41,0,0,0,37.17-28.3,17.86,17.86,0,0,0,1.46-1.86C333.63,502.25,316.79,511.48,298,519.14ZM395.87,469c-2.72.68-6-2.46-7.19,1.81-1.66,5.8-2.8,11.75-4.32,18.31l11.51,1.57Zm8-160.14c0,6.95-.1,13.29.12,19.62,0,.77,1.67,2.05,2.6,2.08,1.51.06,4.16-.36,4.4-1.2,1.75-6,3-12.22,4.56-18.84Zm97.88-28.31c-5.71-3.25-10-2.87-14.26.45-11.62,9.05-23.35,17.94-35,26.92a10.22,10.22,0,0,0-1.48,1.82C466.35,297.42,483.18,288.21,501.79,280.58ZM212.93,644.47c16.9,10.22,33.94,18.7,52.15,25-1.19-2.55-2.37-5.72-4.42-6.55C245.12,656.61,229.4,650.77,212.93,644.47Zm322-515.88c1,6.16,3.67,8.19,7.8,9.71,13.16,4.82,26.13,10.21,39.17,15.39,1,.38,2,.79,2.92,1.18l.59-1.53Zm-324,65-.19-1.2-25.5-1.24c-.59,4.65-1.07,8.45-1.61,12.8Zm405,402.38-26.71,10.2a69.42,69.42,0,0,0,15.43,2.09c11.14.37,11.15.28,11.66-11.38C616.23,596.73,616.12,596.6,615.84,595.94ZM73.16,269.28l-1.32-.5Q62.57,293,53.29,317.29c5.74-8.07,10.64-16.41,15.51-24.77a6.88,6.88,0,0,0,.92-2.33C70.9,283.23,72,276.25,73.16,269.28ZM726.91,530l1.17.51,18.72-48.27c-5.93,8.33-11,17-16.07,25.65a6,6,0,0,0-.56,2C729.07,516.6,728,523.3,726.91,530ZM400.66,329.64V308.88l-10.47,2.42c1,4.74,1.93,8.74,2.8,12.74C394.24,329.82,394.24,329.82,400.66,329.64Zm9.16,158.91c-1.1-4.92-2-9.05-2.94-13.18-1.2-5.52-1.69-5.87-7.59-5.06v20.38ZM163.28,617.86c17.94,13.8,36.82,25.91,57.23,35.28C201.86,639,169.18,618.9,163.28,617.86Zm415.3-472.18c.68,1.09.76,1.37.94,1.48q25.66,16.47,51.37,32.87a35.12,35.12,0,0,0,5.64,2.36A298.14,298.14,0,0,0,578.58,145.68ZM367,431.64c1.46,10.64.12,8.29,12.37,10.05,2.74.39,5.45-4.19,6.17-10.05Zm46.28-63.86h19.88c-1.92-10.31.1-8.18-12.09-9.65C415.33,357.44,416.57,364.2,413.26,367.78ZM544.7,615.39l27.79-7.29A103.08,103.08,0,0,0,556.82,603a2.9,2.9,0,0,0-2.46.64C551.3,607.15,548.39,610.84,544.7,615.39ZM255.27,184.3l-27.86,7.25a111.5,111.5,0,0,0,16.32,5.29,2.5,2.5,0,0,0,2-.88C248.69,192.47,251.54,188.9,255.27,184.3ZM418.41,311.47c-1.39,5.87-2.61,10.94-3.79,16-.25,1.07-.4,2.17-.83,4.49,2.82-.9,5.91-.89,6.89-2.39,2.61-4,4.31-8.65,6.53-13.36ZM533,134.59c-4-11.07-18.28-15-25.52-7.3,7.86,2.34,15.67,4.66,23.49,7C531.5,134.4,532,134.43,533,134.59ZM266.88,664.91c3.91,11.24,17.87,15.12,25.66,7.46ZM381.55,488.26c1.63-6.88,3.08-12.95,4.56-19.2-10.21-.46-9.43,8.85-13.49,14.26ZM350.19,292.74a114.5,114.5,0,0,0-30.29-23.95c.22,2.41.31,5.54,1.72,6.46C331,281.35,340.63,287,350.19,292.74ZM479.76,531.45c.88-4.57-.46-6.74-3.92-8.72-8-4.54-15.56-9.8-23.31-14.76-.82-.53-1.67-1-2.5-1.5l-.63,1A159.75,159.75,0,0,0,479.76,531.45ZM461.22,366.52l.13-1.32-26.65-5.3c.75,3.37,1.29,5.78,1.9,8.51Zm-122.83,66.7-.1,1.19,27,5.34c-.74-3.44-1.24-5.75-1.83-8.46Zm106.24,30.42L431,474.05l14.63,6.51C445.27,474.7,445,469.52,444.63,463.64Zm-75.6-138-14.65-6.53c.36,5.92.69,11.23,1,16.86ZM291.79,457.75c1.92-5.37,3.6-10.05,5.65-15.77l-17.52,6.41Zm210.75-100,17.57-6.43-12-9.26C506.24,347.35,504.57,352,502.54,357.71ZM320.43,260.2l16.73-1.2-11.52-11.08C323.8,252.26,322.3,255.81,320.43,260.2ZM474.3,551.8l5.2-12.31-16.67,1.19Zm91.85-346.33.27-.6c-3.41-3.59-6.79-7.22-10.28-10.73a2.39,2.39,0,0,0-2.17-.42c-2.66,1.15-5.24,2.5-8.66,4.17ZM254.05,601.58l-20.19-7.32c-.38.52-.76,1-1.15,1.55,1.83,1.44,3.77,2.75,5.48,4.33,8.38,7.73,4.5,7.42,15.19,2.25C253.49,602.34,253.56,602.19,254.05,601.58ZM379.34,110.8l.58-1c-2.39-2.66-2-8.14-7.76-7.39-4.91.64-4.41,5.1-6.35,8.4ZM420.66,689l-.51,1.1c2.3,2.58,1.88,7.81,7.43,7.27,4.95-.49,4.64-4.87,6.52-8.37Zm-8.32-202.36,1.55.65c1.42-2.19,4.33-4.65,4-6.51-1.26-7.39-3.27-8.91-8.79-8.58C410.19,477,411.27,481.79,412.34,486.59ZM387.62,313.1l-1.2-.62c-1.6,2.08-4.73,4.34-4.53,6.21.73,6.81,3.81,9.34,9,8.77Q389.23,320.26,387.62,313.1Zm95.59,213.63c-.31,6.68.32,8.61,3.76,8.68,4.44.09,8.9-.76,13.35-1.2l-.1-.8ZM299.94,265.5l-.32.72c5.62,2.2,11.24,4.4,16.92,6.64,1-7.82-.46-9.41-7.4-8.53ZM258.1,617.23c.32-5,.59-9.19.9-14.08l-11.59,5.66ZM552.59,190.88l-10.81-8.44c-.29,5.12-.52,9.28-.8,14.13Zm-315.7-60.33c-.08-.44-.16-.88-.23-1.32-9.67,1-18.43,4.38-25.69,11.64ZM589,658.74l-25.82,10.47c.16.41.32.82.47,1.23C573.16,669.25,581.9,666.09,589,658.74ZM497.12,362.57l-17.4,4.23c3.12,1,5.17,1.64,7.22,2.27C494.41,371.36,494.41,371.35,497.12,362.57ZM302.51,437.18l17.78-4.34L306,428.52C304.85,431.37,303.84,433.89,302.51,437.18Zm64.37-121.24.51-.49L353.92,302l-1,.4c.86,2.44,1.07,5.75,2.73,7.12C359,312.2,363.1,313.85,366.88,315.94Zm53,38.75,10.8,1.49L427,344.08Zm-50.6,88.74c1.29,4.27,2.35,7.79,3.7,12.29l7-10.67Zm76,54.65,1.27-.7c-.42-2.3-.08-5.68-1.41-6.69-3.74-2.85-8.16-4.73-12.31-7l-.78,1Zm-69.15-28.65c-4.82-1.56-7.41,1.13-8.53,4.45-.62,1.82,1.15,4.52,1.84,6.83l1.36-.19Zm54.57-150.34-1.56,0-5.39,11.14c4.46,1.48,7.26-.69,8.35-4.24C432.73,324.07,431.26,321.42,430.73,319.09Zm127.5,355.78-.57-2L528.25,683.5c.1.32.19.63.28,1ZM396.35,466.14a56,56,0,0,0-.1-7.07,3.17,3.17,0,0,0-2.06-2.19,3.21,3.21,0,0,0-2.74,1.44,53.86,53.86,0,0,0-1.52,7.12Zm3.1.27,5.19.79c.45-7.53-.42-9.11-5.19-9.3ZM404,333.8v8.76c4.76.72,5.94-1.14,5.45-8.48Zm-8.89-1.44c.28,9.09.67,9.71,5.46,9v-8.08ZM269.32,117.05l-.49-.87-27,8.81.56,1.8Zm99,203.86-13.75-8.72C354.6,316.09,359.25,319.1,368.34,320.91Zm76.6,166.33c.35-.51.7-1,1-1.52-3.39-4.68-9.08-5.31-13.68-7.86l-.56,1ZM275.59,522.92l11-3.16-9.39-3ZM524.16,276.85l-10.65,3,9.13,3.06c.42-1.33.78-2.36,1.07-3.42C523.88,278.9,523.94,278.23,524.16,276.85ZM387.87,457.27c-3.85,0-5.48,2.37-6,8.42C385.72,464.24,386.09,460.51,387.87,457.27Zm30.28-122.59c-3.95.92-4.57,4.43-5.83,8.11C417.78,342.49,416.62,337.51,418.15,334.68Zm-65.34,9.21c-2.28,2.88-3.93,4.95-6.31,7.94l7-.66C353.28,348.86,353.11,347.06,352.81,343.89Zm94.43,111.87,5.9-7.35h-6.63C446.74,450.74,446.93,452.65,447.24,455.76ZM596.41,656.13c.29.52.59,1,.88,1.54l15.59-8.62-.37-.74ZM349.66,261.57l-5.89.3,5.89,6.63Zm47.21,191.84-.93-6.5c-.67.24-1.76.3-1.93.74a57.39,57.39,0,0,0-1.59,5.76ZM186.14,151.13l.36.72,16.16-8-.71-1.44ZM408.14,347c-3.58-1.5-4.93-.75-4.75,2a19.94,19.94,0,0,0,1.08,4Zm42.21,184.22v6.62H456C454,535.41,452.42,533.6,450.35,531.17Zm4-86c.12-.41.23-.83.35-1.25l-8.09-2.39C447.61,447.66,451.87,443.7,454.36,445.16ZM345.23,355.8l8.21,2.38C353.44,354.16,353.44,354.16,345.23,355.8Zm64.84-2.35,1.24.47,2.94-7.66C410.28,346.6,409.42,348.36,410.07,353.45Zm-21.45,92.36-2.8,7.59C389.72,453,390.8,450.57,388.62,445.81Zm12.15.77c-2.34,5.43-1.67,7.66,1.83,7.38C402,451.69,401.48,449.46,400.77,446.58Zm-7.56-94.75,1.14-.24c-.39-3,.64-6.5-3.41-8.19Q392.07,347.62,393.21,351.83Z" transform="translate(-42.39 -99)"/></svg>