<svg id="Capa_2" data-name="Capa 2" xmlns="http://www.w3.org/2000/svg" viewBox="0 0 110 192.97"><defs><style>.cls-1{fill:#2cf5a9;}</style></defs><title>human_wireframe</title><path class="cls-1" d="M91,196.38c-5.29-.39-10.59-.92-15.9-1.11-3.24-.12-6.5.3-9.75.41-5.21.18-10.42.45-15.63.36-1.89,0-3.78-.92-5.65-1.47-3.14-.9-6.25-1.87-9.39-2.74a1.76,1.76,0,0,1-1.38-1.44c-.93-3.43-1.92-6.86-2.93-10.27a1.7,1.7,0,0,1,.3-1.72,181.27,181.27,0,0,0,11.22-16.72,9.8,9.8,0,0,0,1.61-4.41c.28-3.07.9-6.12,1.09-9.19a27.83,27.83,0,0,0-.59-5.42c0-.25-.39-.55-.66-.66-2.84-1.17-4.48-3.38-5.58-6.24-.86-2.21-2.17-4.23-3-6.44a34.56,34.56,0,0,1-1.33-5.73,65.07,65.07,0,0,0-3-11.16c-.27-.74-.55-1.16-1.4-1.21a29.66,29.66,0,0,1-4-.57A1.82,1.82,0,0,1,24,109.8c-.41-.69-.62-1.51-1-2.21-1.83-3.25-2.24-6.83-2.61-10.48A97.48,97.48,0,0,1,20.65,79c.05-.61.22-.89.87-1,1.2-.22,2.79-.24,3.43-1s.34-2.41.43-3.67q.95-13.55,1.9-27.07c.15-2,.28-4.09.52-6.12a14.68,14.68,0,0,1,.77-3.44c1.39-3.68,2.86-7.32,4.33-11a3.28,3.28,0,0,1,.76-1.19c4.18-3.89,7.71-8.37,11.38-12.74a4.79,4.79,0,0,1,1.71-1.25C50.16,9,53.63,7.73,57,6.19a26.08,26.08,0,0,1,7.69-1.74c2.72-.36,5.44-.85,8.18-1a30.66,30.66,0,0,1,5.39.41c2.69.31,5.38.69,8.07,1.07a8.72,8.72,0,0,1,1.89.47Q94.64,7.93,101,10.55a3.49,3.49,0,0,1,1.23.85q4.89,5.25,9.74,10.53a4.7,4.7,0,0,1,.74,1.08c1.78,3.66,3.56,7.32,5.3,11a29.1,29.1,0,0,1,2.06,8.17c1,6.77,2,13.53,3,20.31a24.37,24.37,0,0,1-.18,4.89c-.22,2.75-.46,5.49-.75,8.23-.09,1,.17,1.46,1.13,1.62,1.56.27,3.1.69,4.67.92.7.1.88.37,1,1,.36,3.18.91,6.34,1.13,9.53a26.69,26.69,0,0,1-.43,5.33c-.37,2.91-.82,5.81-1.26,8.72a2.8,2.8,0,0,1-.33.93c-1.26,2.22-2.51,4.44-3.83,6.62a1.69,1.69,0,0,1-1.11.66c-1.68.28-3.37.49-5.06.66a1.51,1.51,0,0,0-1.34,1c-2.35,4.86-3.62,10.11-5.23,15.23a9.82,9.82,0,0,1-1.11,2.39c-1.31,2.05-2.72,4-4,6.09a3.57,3.57,0,0,0-.53,1.63c-.16,3.05-.41,6.11-.31,9.15.07,2.1.74,4.16,1,6.26a13.57,13.57,0,0,0,2.66,6.22q4.23,5.88,8.19,12c1.58,2.45,2.89,5.07,4.29,7.64a1.25,1.25,0,0,1,0,1q-2.73,5.58-5.55,11.12a1.53,1.53,0,0,1-.86.68q-8.15,2.13-16.3,4.21a4.75,4.75,0,0,1-1.07.13ZM70.51,23.87c-.28,6.94-.56,13.72-.83,20.52l12,1.17,3.19-19.1ZM69.06,44.39c.27-6.84.55-13.62.83-20.51L55.67,26.46c.54,6.39,1.08,12.69,1.62,19.09ZM82.2,46.27c-.86,7.11-1.7,14.13-2.57,21.32l13.93-2.12c.37-5.74.72-11.3,1.1-16.86,0-.62-.23-.77-.75-.82-.89-.08-1.79-.22-2.68-.34Zm32.9,145.18c-3.18-6.3-6.28-12.42-9.43-18.65-2.28,1.45-4.48,2.88-6.71,4.25a1.47,1.47,0,0,0-.79,1.51c.17,5.47.29,10.94.43,16.41a3.74,3.74,0,0,0,.16.67ZM82.31,45.64l12.44,1.63C95.86,41,97,34.74,98.06,28.46L85.49,26.57C84.43,32.93,83.39,39.18,82.31,45.64ZM69.6,68.08a.44.44,0,0,0,.17.07c2.89-.14,5.78-.28,8.67-.48.23,0,.57-.48.61-.77.54-4.13,1-8.26,1.53-12.4.33-2.72.66-5.44,1-8.3L69.6,45Zm-11-.53C58,60.3,57.35,53.3,56.75,46.24c-3.62.52-7,1-10.42,1.46-.94.11-1.08.51-1.07,1.34.05,4.84.06,9.68.08,14.52v1.86ZM57.37,46.17c.29,3.47.56,6.76.84,10s.59,6.88.87,10.32c.06.86.37,1.17,1.27,1.19,2.16,0,4.32.25,6.49.37.63,0,1.27,0,2,0V45.05ZM85,25.82c.38-5.53.73-10.86,1.1-16.27L72,7.69c-.49,5.25-1,10.34-1.45,15.53ZM45.22,47.08a2,2,0,0,0,.49.06c3.44-.47,6.88-.92,10.31-1.44a1.15,1.15,0,0,0,.58-.91c-.46-5.78-1-11.56-1.47-17.35a7.1,7.1,0,0,0-.21-.86c-3.59.59-7.08,1.19-10.58,1.71-.76.12-.93.35-.85,1.13.38,3.52.68,7,1,10.56C44.74,42.34,45,44.7,45.22,47.08ZM71.35,7.85a1.73,1.73,0,0,0-.45-.07c-4.22.56-8.45,1.12-12.67,1.74a1.18,1.18,0,0,0-.71.83c-.53,4.12-1,8.26-1.49,12.39-.11,1-.18,2-.28,3,4.66-.84,9.14-1.64,13.61-2.48a1.09,1.09,0,0,0,.6-.74c.16-1,.23-2.06.33-3.1C70.64,15.62,71,11.77,71.35,7.85ZM49.06,195.38c.09-.19.15-.25.15-.32q.38-8.58.72-17.17a1.1,1.1,0,0,0-.28-.78c-1.91-1.51-3.85-3-5.88-4.55-3.16,6.21-6.26,12.28-9.43,18.5ZM86.65,9.75c-.37,5.52-.72,10.81-1.09,16.18L98,27.81c.12-.17.18-.22.2-.29.85-3.65,1.71-7.29,2.5-10.95a1.18,1.18,0,0,0-.56-1c-1.91-.88-3.86-1.69-5.79-2.52Zm28.91,181.18c1.8-3.6,3.44-7,5.14-10.27a1.41,1.41,0,0,0-.17-1.77c-3-3.88-6-7.8-9.06-11.71l-3.34-4.28c-.1.4-.16.6-.2.8-.54,2.55-1.11,5.08-1.59,7.64a3.1,3.1,0,0,0,.23,1.78c2.26,4.57,4.57,9.12,6.88,13.67C114.11,188.1,114.78,189.4,115.56,190.93ZM98.76,28.84a2,2,0,0,0-.17.38c-1,5.89-2.1,11.77-3.11,17.67,0,.25.37.74.67.88,1.85.85,3.72,1.64,5.58,2.45l2.42,1c.14-.14.22-.19.24-.25,1.34-4.82,2.68-9.65,4-14.49a1.38,1.38,0,0,0-.5-1.12C106,34,104,32.59,102.07,31.21ZM86.18,195.58H98L97.56,178c-.21,0-.29-.06-.35,0-3.13,1.14-6.26,2.27-9.38,3.45a1.27,1.27,0,0,0-.57.9c-.23,2.06-.41,4.14-.57,6.21C86.51,190.81,86.36,193.06,86.18,195.58ZM56.89,9.94a3.11,3.11,0,0,0-.49.09C52.18,11.9,48,13.75,43.76,15.67a1.42,1.42,0,0,0-.59,1.09c0,1.94,0,3.87.06,5.81,0,1.7,0,3.41,0,5.26,4-.65,7.66-1.23,11.32-1.88.24,0,.54-.54.58-.86.32-2.32.58-4.65.84-7C56.28,15.42,56.58,12.73,56.89,9.94ZM61,195.39c0-.37,0-.51,0-.66-.36-4.22-.71-8.45-1.12-12.67a1.31,1.31,0,0,0-.7-.82c-1.15-.54-2.33-1-3.5-1.49l-5.14-2.1-.74,17.74ZM95.37,48.15a11.35,11.35,0,0,0-.2,1.19c-.3,4.86-.57,9.73-.91,14.59-.08,1.14,0,1.88,1.37,1.86a6.52,6.52,0,0,1,1.27.26l6.85,1.34a1.86,1.86,0,0,0,.17-.3c.09-4.85.19-9.69.26-14.53a1,1,0,0,0-.45-.75C101,50.58,98.22,49.39,95.37,48.15ZM86.64,181.73,74,182.92v11.6l11.56.92C85.92,190.8,86.27,186.36,86.64,181.73Zm-26.14-.11c.42,4.69.82,9.17,1.22,13.71l11.66-.81c0-.57,0-1,0-1.45-.06-2.68-.14-5.35-.18-8,0-2,0-2.06-1.93-2.28C67.76,182.35,64.24,182,60.5,181.62ZM42.82,28.9c-.4.3-.67.49-.91.69-2.23,1.85-4.43,3.72-6.68,5.54a1.54,1.54,0,0,0-.62,1.8c.27,1,.36,2.12.54,3.19.6,3.65,1.21,7.3,1.84,11.1,2.27-1.14,4.42-2.26,6.61-3.29a1.35,1.35,0,0,0,.93-1.6c-.42-4.1-.79-8.21-1.18-12.32C43.19,32.36,43,30.71,42.82,28.9ZM33.91,190.2c.22-.21.29-.25.32-.31q4.46-8.73,8.89-17.48a2.2,2.2,0,0,0,.21-1c0-1.34-.08-2.68-.15-4s-.17-2.82-.26-4.32c-.22.15-.29.17-.33.23q-5.72,7.78-11.41,15.6a1.26,1.26,0,0,0-.22.89C31.91,183.2,32.9,186.64,33.91,190.2ZM84,169.4,87.2,181c3.35-1.24,6.54-2.4,9.72-3.63a1.18,1.18,0,0,0,.43-1c-.28-2.17-.63-4.34-1-6.5-.24-1.53-.5-3.05-.77-4.68Zm9.69-25.29c3.2-1.52,6.19-2.91,9.15-4.38.27-.13.46-.71.47-1.09.05-3,.05-5.95.07-8.93,0-.65,0-1.31,0-2l-10.22,1.22C93.35,134,93.52,138.91,93.7,144.11Zm15-109c.15-.42.27-.72.36-1,.82-2.62,1.6-5.26,2.46-7.86a1.28,1.28,0,0,0-.44-1.61c-2.65-2.26-5.26-4.57-7.89-6.85-.53-.47-1.08-.91-1.74-1.45-.75,3.26-1.46,6.33-2.17,9.4-.52,2.28-.52,2.28,1.33,3.61ZM44.59,65.47V48.13c-2.36,1.19-4.55,2.32-6.77,3.39A1.27,1.27,0,0,0,37,52.78c-.17,3.94-.38,7.88-.56,11.82,0,.87,0,1.74,0,2.7Zm42,115.64c-.11-.47-.17-.76-.25-1l-2.46-9c-.41-1.49-.4-1.49-1.85-1.23l-1.49.26-7.08,1.32c.12,3.64.23,7.19.34,10.88ZM92,153.71c-3.44,1.75-6.78,3.43-10.08,5.18a1.17,1.17,0,0,0-.34,1c.56,2.39,1.19,4.76,1.8,7.13.14.55.32,1.1.5,1.71l11.59-4.25Zm15.2-72.05c-2.15,2.91-4.21,5.69-6.23,8.5a1.41,1.41,0,0,0,.08,1.09q2.27,5.07,4.58,10.1c.1.23.24.43.42.76,2.23-2.93,4.39-5.75,6.51-8.61a1.31,1.31,0,0,0-.06-1.09c-1.16-2.44-2.36-4.85-3.55-7.27C108.42,84,107.85,82.91,107.22,81.66ZM73.15,182.29c-.13-3.6-.24-7-.39-10.35a.89.89,0,0,0-.55-.64c-3-.62-5.94-1.2-9-1.81-.88,3.85-1.75,7.62-2.64,11.49ZM52,165c-.37,3.28-.7,6.34-1.09,9.4-.32,2.54-.36,2.54,1.9,3.47l7,2.88c.1-.18.19-.26.21-.36.81-3.51,1.64-7,2.4-10.52,0-.23-.28-.71-.54-.83-1.38-.62-2.81-1.17-4.21-1.74Zm57-128.21c-1.26,4.63-2.6,9.48-3.88,14.34a1.21,1.21,0,0,0,.45.95c1.44,1.12,2.92,2.18,4.39,3.26l2.2,1.57c1-4.72,2-9.25,2.91-13.78a.9.9,0,0,0-.19-.68C112.88,40.55,110.92,38.69,108.94,36.79ZM94.5,103.69l-12.18-7c-.43,2.58-.86,5-1.19,7.34a2.19,2.19,0,0,0,.47,1.54c1.59,1.78,3.26,3.48,4.9,5.22l2.39,2.54ZM52.1,164.34l10.61,4.32c.61-3.11,1.21-6.08,1.74-9.07,0-.26-.36-.75-.66-.92-2.5-1.42-5-2.78-7.55-4.15-.52-.29-1.07-.56-1.7-.88C53.71,157.27,52.92,160.76,52.1,164.34ZM91.4,92.26c1.24,3.59,2.41,7.06,3.64,10.5.09.23.63.42,1,.41,2-.1,4-.25,6-.4,1.1-.08,2.19-.2,3.39-.31C104,99.2,102.58,96.1,101.18,93c-1-2.17-1-2.17-3.27-1.84l-1.61.25ZM50.78,113.2c1.77-2,3.33-4,5.11-5.67s2.71-3.38,1.88-5.82a3.29,3.29,0,0,1,0-.45c-.19-1.48-.39-3-.6-4.59l-11.58,6.91Zm59.3-38.9c.22-1.92.41-3.53.59-5.14.4-3.51.81-7,1.18-10.54,0-.39,0-1-.27-1.19-2.16-1.67-4.37-3.26-6.66-4.94-.06.38-.11.6-.12.81q-.15,6.87-.28,13.73a1.56,1.56,0,0,0,.26.93C106.46,70,108.17,72,110.08,74.3ZM34.16,81.57c-1.55,3.84-3,7.41-4.39,11A1.56,1.56,0,0,0,30,93.68c1,1.73,2,3.44,3,5.16l1.86,3.06c1.71-3.85,3.34-7.49,4.94-11.15a.9.9,0,0,0,0-.72C38,87.27,36.13,84.52,34.16,81.57ZM48.77,92.15c-2.53-.45-4.88-.84-7.2-1.32a1,1,0,0,0-1.4.74c-1.4,3.23-2.84,6.43-4.26,9.64-.14.33-.26.66-.44,1.12,3.07.25,6,.5,8.89.7a.9.9,0,0,0,.72-.45C46.32,99.18,47.5,95.76,48.77,92.15Zm-.86,51.72c-.27-5-.52-9.8-.81-14.58a1,1,0,0,0-.67-.63c-1.28-.24-2.57-.41-3.86-.59l-3.93-.56c.53,4,1,7.7,1.56,11.44a1.05,1.05,0,0,0,.51.65C43,141,45.33,142.35,47.91,143.87Zm61.38-32.67c-1.13-2.59-2.21-5.1-3.34-7.58a1,1,0,0,0-.85-.41c-1.77.06-3.54.18-5.31.31-1.41.1-2.82.24-4.36.37,1.69,3.77,3.3,7.33,4.92,11Zm-7.11,47.12c-2,2.21-3.89,4.25-5.74,6.32a1.13,1.13,0,0,0-.11.81c.32,2.24.67,4.48,1,6.71.24,1.52.5,3,.78,4.66,2.38-1.52,4.6-2.9,6.78-4.35a1.18,1.18,0,0,0,.35-1C104.28,167.18,103.26,162.89,102.18,158.32ZM34.37,34.83a1.35,1.35,0,0,0,.39-.15c2.53-2.09,5.08-4.18,7.57-6.32a1.69,1.69,0,0,0,.41-1.16c0-3.38-.13-6.76-.21-10.15a1.72,1.72,0,0,0-.16-.44c-2.32,2.33-4.5,4.67-6.85,6.81a4.51,4.51,0,0,0-1.7,4.41C34.16,30.12,34.2,32.45,34.37,34.83Zm66.37,111.61-6.07,5.14c-2.11,1.78-2.11,1.77-1.26,4.41l2.61,8.1c2-2.19,3.89-4.23,5.75-6.3a1,1,0,0,0,.18-.71C101.57,153.62,101.17,150.15,100.74,146.44Zm-17.49,22.5c-.81-3.12-1.56-6.09-2.36-9.06,0-.22-.36-.53-.55-.53-2.37,0-4.74,0-7,0v11.44Zm11.66-64.66c-1.88,3.22-3.63,6.21-5.36,9.21a1,1,0,0,0-.08.72c1,2.33,2.07,4.64,3.18,7.1,2.35-2,4.59-3.94,6.81-5.9a.86.86,0,0,0,.09-.76C98.06,111.27,96.54,107.9,94.91,104.28Zm-50.23-.56c-3.08-.24-6-.5-8.9-.67-.27,0-.73.39-.84.7-.61,1.66-1.13,3.36-1.67,5-.23.73-.43,1.46-.66,2.22l7.73,3.63Zm18.65,65.14,9.2,1.83c0-3.64,0-7.17,0-10.7,0-.21-.48-.59-.76-.6-1.91-.11-3.83-.13-5.74-.21a.79.79,0,0,0-1,.77c-.21,1.32-.5,2.62-.76,3.94C64,165.51,63.65,167.14,63.33,168.86Zm37.24-53.41,3.25,11.06.43.25c1.68-1.85,3.36-3.69,5-5.55a1.38,1.38,0,0,0,.23-.81q0-3.86,0-7.7a5.17,5.17,0,0,0-.15-.8Zm-7.42,12.79L103.31,127c-1.11-3.79-2.17-7.42-3.29-11.21-2.38,2.05-4.62,4-6.84,5.91a1,1,0,0,0-.29.68C93,124.29,93.06,126.18,93.15,128.24ZM45.28,104.39c-.17.14-.22.16-.23.19-.95,2.36-1.92,4.72-2.85,7.1-.43,1.09-1.29,2.32-1.07,3.28s1.52,1.69,2.36,2.49c1.26,1.21,2.54,2.39,3.91,3.69,1-2.47,1.93-4.75,2.84-7a1,1,0,0,0-.1-.71C48.54,110.39,46.92,107.41,45.28,104.39ZM50,176.56c.36-3.12.5-6,1.05-8.78a6,6,0,0,0-1.59-5.72,42.69,42.69,0,0,1-2.75-3.59c-.18.08-.23.09-.23.11q-1.22,6.4-2.41,12.8a1,1,0,0,0,.23.77C46.17,173.59,48,175,50,176.56ZM33.93,36.64c-.33.42-.54.65-.72.91-1,1.45-2.05,2.89-3,4.39a3.1,3.1,0,0,0-.42,1.74c.22,2.85.52,5.7.8,8.55.14,1.42.31,2.83.49,4.45,1.79-1.71,3.41-3.24,5-4.81a1.36,1.36,0,0,0,.19-1C35.9,48.42,35.5,46,35.1,43.5,34.74,41.29,34.35,39.08,33.93,36.64ZM83,74.62c3.11-.77,6.12-1.51,9.13-2.28.24-.06.58-.31.61-.51.27-1.85.49-3.72.73-5.69L79.77,68.21ZM51.59,163.8c.8-3.55,1.56-6.83,2.26-10.13a1.44,1.44,0,0,0-.44-1c-1.75-1.78-3.53-3.53-5.31-5.29-.27-.26-.56-.51-1-.94-.14,3.69-.27,7.1-.37,10.51a1.21,1.21,0,0,0,.24.71C48.42,159.63,49.91,161.59,51.59,163.8ZM112.25,26c-1,3.23-1.92,6.12-2.77,9a1.49,1.49,0,0,0,.35,1.12c.82,1,1.69,1.84,2.56,2.73,1,1,2,2.06,3.11,3.13.91-1.06,1.75-2.12,2.68-3.11a1.19,1.19,0,0,0,.14-1.65c-1.45-2.61-2.85-5.25-4.26-7.89C113.51,28.37,113,27.34,112.25,26ZM36.4,52.5c-1.82,1.74-3.41,3.24-5,4.79a1.35,1.35,0,0,0-.26.9q.25,7.25.56,14.5a7.59,7.59,0,0,0,.18,1c2-3.3,4.57-6.13,3.94-10.26a4.19,4.19,0,0,1,.07-.78C36.08,59.37,36.23,56.11,36.4,52.5Zm9,13.58c.35,2,.65,3.74,1,5.48a1,1,0,0,0,.58.64q4.19,1.15,8.39,2.2c.24.06.71-.09.78-.27.79-1.93,1.52-3.89,2.3-5.94ZM84.14,90.5c-.48,1.59-.91,3.12-1.42,4.62a1,1,0,0,0,.54,1.39c3.42,1.92,6.81,3.9,10.22,5.85.2.11.43.18.83.35-1.18-3.47-2.29-6.75-3.43-10a1.06,1.06,0,0,0-.6-.56C88.27,91.57,86.25,91.05,84.14,90.5ZM38.63,126.84l8.55,1.26c0-2.08,0-4,0-5.93a1.49,1.49,0,0,0-.49-.81q-2.62-2.51-5.27-5a7.82,7.82,0,0,0-.73-.53C40,119.55,39.32,123.11,38.63,126.84Zm71.14-16.15c1.54-2.45,3-4.69,4.35-6.94a1,1,0,0,0,.15-.63c-.37-2.93-.77-5.86-1.17-8.86-.21.11-.32.13-.38.2-2,2.66-4.07,5.32-6.07,8a.93.93,0,0,0-.13.79C107.54,105.66,108.61,108.05,109.77,110.69ZM88.4,146.08c1.53-.55,2.92-1,4.28-1.59.21-.08.37-.59.36-.89-.09-3.76-.21-7.51-.34-11.26,0-1-.11-1.91-.18-3.08-1.53,1.17-2.93,2.2-4.27,3.3-.21.17-.24.67-.24,1,0,2.15.1,4.31.17,6.46C88.24,142,88.32,144,88.4,146.08ZM45.74,102.71c3.82-2.27,7.37-4.39,10.91-6.52a.75.75,0,0,0,.29-.61c-.34-1.7-.72-3.38-1.1-5.14-2.06.55-4,1-5.88,1.62a1.62,1.62,0,0,0-.79.89c-.76,2-1.46,4.11-2.18,6.17C46.6,100.22,46.22,101.33,45.74,102.71Zm69.87-58.12-.25,0q-1.11,5.22-2.2,10.44c-.18.87-.64,1.86-.4,2.6.81,2.51,1.88,4.92,3,7.69.83-2.43,1.48-4.56,2.3-6.6a5.66,5.66,0,0,0,.17-3.87C117.28,51.42,116.47,48,115.61,44.59ZM69.51,77.07c1.48.25,2.83.47,4.18.73.56.11.84-.1,1.07-.62.75-1.73,1.55-3.43,2.33-5.15l1.65-3.71-9.23.54ZM59.46,68.29c1.61,3.21,3.1,6.21,4.62,9.19a.74.74,0,0,0,.61.31c1.37-.21,2.74-.47,4.08-.7V68.84ZM87.39,133c-1.6.74-3,1.4-4.36,2a1.15,1.15,0,0,0-.79,1.26c0,2.42,0,4.84,0,7.26v2.26l5.51.4C87.63,141.79,87.52,137.53,87.39,133ZM32.61,111.74c.21,1.59.5,3,.57,4.36a12.18,12.18,0,0,0,3.41,8.26c.52.53.93,1.16,1.51,1.88.67-3.6,1.31-6.95,1.9-10.3,0-.26-.07-.73-.25-.81C37.45,114,35.12,112.92,32.61,111.74ZM112.67,59.3h-.24c0,.13-.07.27-.09.4-.52,4.61-1,9.23-1.55,13.85a3.08,3.08,0,0,0,0,1.63c.93,1.7,2,3.33,3.13,5.18a11.69,11.69,0,0,0,.24-1.18c.32-3.21.64-6.43.92-9.65a10.46,10.46,0,0,0,.12-3.64C114.57,63.64,113.54,61.49,112.67,59.3ZM104,138.59c2.22-3.3,4.27-6.34,6.3-9.39a.8.8,0,0,0,.13-.52c-.26-2.2-.53-4.39-.81-6.64-.2.07-.32.07-.38.14-1.63,1.64-3.26,3.27-4.87,4.93a1.25,1.25,0,0,0-.35.76C104,131.32,104,134.78,104,138.59Zm-22.44,7.23V135.64l-6,1.48c.16,3.06.31,6,.47,9.15Zm2.28-62.57A19.68,19.68,0,0,0,92.79,85c2.53-.22,4.8-.86,6-3.67a12.52,12.52,0,0,0-2.25-1,14.31,14.31,0,0,0-6-.3C88,80.45,85.31,80.37,83.86,83.25ZM52.09,145.8c0-4.34,0-8.5,0-12.66a1,1,0,0,0-.25-.7c-1.28-1.06-2.58-2.09-4.08-3.3.27,5.08.52,9.86.79,14.64a.84.84,0,0,0,.39.59C50,144.88,51.09,145.35,52.09,145.8Zm4.65-62.7c-1.08-.92-1.92-2.19-3-2.42-3.11-.67-6.29-1.56-9.52-.61a24.33,24.33,0,0,0-2.73,1.17c.76.89,1.3,1.59,1.91,2.22a2.79,2.79,0,0,0,1.13.77C48.66,85.58,52.61,84.8,56.74,83.1ZM52.67,133c.12,4.53.24,8.78.35,13.13l4.45-.35c0-3.37,0-6.56,0-9.75a1.05,1.05,0,0,0-.41-.8C55.67,134.43,54.28,133.76,52.67,133ZM101,15.23c.09-1.09.14-2,.25-2.87a1.19,1.19,0,0,0-.9-1.47c-3.95-1.53-7.87-3.14-11.81-4.72-.28-.11-.58-.19-.93-.3-.24.89-.43,1.68-.66,2.46-.18.59,0,.86.56,1.08,2,.85,4.07,1.75,6.09,2.63ZM58.43,145.72l5.17.52c.12-3.13.23-6.12.34-9.16l-5.87-1.51C58.19,139,58.31,142.29,58.43,145.72Zm19-62.26c1.68-2.82,3.29-5.5,4.87-8.18a.64.64,0,0,0,0-.52c-1-2-2-3.9-3-6.08C77.81,72,76.44,75,75.09,78a.83.83,0,0,0,0,.62C75.84,80.18,76.59,81.73,77.42,83.46Zm28.22,86.79h.24c.36-1.68.64-3.39,1.1-5a11.14,11.14,0,0,0,.07-6.14c-.28-1-.42-2-.63-3l-1.29-6.27c-1.45,4.26-3.29,8.45-1.29,13a5,5,0,0,1,.22.87Q104.84,166.94,105.64,170.25ZM94.14,66.15c-.25,2-.5,4-.76,6,2.49.37,4.87.74,7.26,1.07a.75.75,0,0,0,.59-.35c.83-1.54,1.64-3.11,2.52-4.82Zm18.7,25.44.27-.08c.26-3.21.53-6.42.79-9.63a.87.87,0,0,0-.1-.53c-1.11-1.81-2.23-3.62-3.43-5.56-.26.47-.46.77-.61,1.09-.68,1.35-1.88,2.7-1.88,4.06s1.12,2.82,1.79,4.21C110.71,87.31,111.78,89.44,112.84,91.59ZM69.35,147.05v-9.89c-1.38,0-2.64,0-3.9,0-.7,0-.94.23-1,1,0,2.41-.15,4.83-.22,7.25,0,.32,0,.64.06,1Zm.82-9.89v9.91l5.24-.73-.47-9.18Zm37.05-56.72c.89-1.73,1.71-3.3,2.48-4.89a.87.87,0,0,0-.08-.77c-1.72-2.09-3.47-4.16-5.33-6.36-.88,1.7-1.7,3.26-2.49,4.83a.68.68,0,0,0,0,.59C103.59,76,105.36,78.16,107.22,80.44Zm-45,2.93c.53-1.73,1-3.19,1.43-4.68a1.67,1.67,0,0,0-.2-1c-1.33-2.72-2.7-5.42-4.06-8.12a5.44,5.44,0,0,0-.46-.68c-.76,2-1.48,3.79-2.15,5.62a1,1,0,0,0,.1.82C58.56,77.92,60.29,80.52,62.19,83.37Zm7.23-5.66V88.05l4,.7c.3-3.46.59-6.81.88-10.2ZM36.42,68c.76,1.65,1.41,3.14,2.13,4.6a1,1,0,0,0,.79.51c2.14-.28,4.28-.63,6.52-1-.38-2.06-.73-4-1.09-6ZM87,5.62C82.75,5.06,78.68,4.51,74.61,4a.88.88,0,0,0-.73.3c-.56.85-1,1.75-1.63,2.77L86.14,8.92ZM119,39c-1,1.12-1.71,2.06-2.53,2.93A1.7,1.7,0,0,0,116,43.7c.51,1.78.93,3.59,1.38,5.39.55,2.17,1.1,4.35,1.74,6.85.76-1.36,1.37-2.43,2-3.52a.86.86,0,0,0,0-.53C120.42,47.68,119.72,43.47,119,39ZM75.47,147l-5.36.72c.17,2.47.32,4.79.48,7.07h6.14Zm41.4-58.94c.37-2.64.6-5.32,1.14-7.93a12.59,12.59,0,0,0-.6-7.29c-.46-1.21-.75-2.48-1.13-3.72-.07-.22-.17-.42-.39-.92-.07.54-.1.74-.12,1a78.43,78.43,0,0,1-.82,8C114.17,81.05,115.45,84.51,116.87,88.06ZM70,154.78c-.15-2.2-.29-4.42-.47-6.63a.73.73,0,0,0-.47-.47c-1.56-.26-3.12-.47-4.82-.71l-.34,7.81Zm-5-66.09,1-.17c2.68-.41,2.68-.41,2.76-3.15,0-.23,0-.45,0-.67v-7l-4.34.81ZM119,58.46l-.24-.05a31.66,31.66,0,0,1-1.27,3.5,9.77,9.77,0,0,0-.19,8.63,42.55,42.55,0,0,1,1.35,4.37c.88-2.47,1.52-4.93,2.14-7.4a1.49,1.49,0,0,0,0-.66C120.2,64.05,119.61,61.26,119,58.46ZM29.67,94.41c-.54,5.56-.36,10.73,2.59,15.45a27.54,27.54,0,0,1,1.15-3.39,6.18,6.18,0,0,0-.79-7.21A43.84,43.84,0,0,1,29.67,94.41Zm93.07,2.72c1.8-.66,3.46-1.26,5.12-1.9.2-.08.49-.32.49-.49,0-1.54,0-3.09,0-4.68l-5.22.39a2.06,2.06,0,0,0-1.88,2.81C121.65,94.53,122.21,95.74,122.74,97.13ZM73.2,4.13C73,4.06,73,4,72.89,4c-4.09.52-8.18,1-12.27,1.56a1,1,0,0,0-.65.33c-.64.88-1.23,1.8-1.88,2.77a1.71,1.71,0,0,0,.44.1Q64.76,8,71,7.09a1.1,1.1,0,0,0,.71-.39C72.22,5.87,72.69,5,73.2,4.13Zm8,154.39,10.47-5.35c-.76-.69-1.39-1.19-1.95-1.77a.93.93,0,0,0-1.31-.17q-2,1-4.16,1.85c-1.41.55-2.85,1-4.35,1.51Zm4.24-41c1.1-1.31,2.09-2.48,3.14-3.71l-7.6-7.55c0,1.1,0,2.21,0,3.32a2.9,2.9,0,0,0,.19,1.4C82.48,113.17,83.9,115.27,85.4,117.56ZM34.14,80.21c1.39-2.27,2.65-4.3,3.88-6.36a.92.92,0,0,0,.06-.71c-.67-1.52-1.37-3-2.15-4.72-1.35,2.19-2.61,4.22-3.84,6.26a1,1,0,0,0,0,.71C32.71,76.93,33.38,78.45,34.14,80.21Zm42,66.72,1.26,7.7c1-.29,1.86-.63,2.77-.81A1.44,1.44,0,0,0,81.48,152c-.09-1.1,0-2.22.06-3.34,0-.72,0-1.44,0-2.22ZM29.55,41.74C30.74,40,31.72,38.46,32.83,37A3.89,3.89,0,0,0,33.69,34c-.19-1.43-.18-2.89-.29-4.33-.06-.81-.17-1.62-.26-2.43-1.41,3-2.47,6.09-3.85,9C28.38,38.13,28.93,39.75,29.55,41.74ZM54,117.45a47,47,0,0,1,3.1-4.78c1.69-2,1-4.3.9-6.59l-6.83,7.69Zm34.89-3c-1,1.22-1.92,2.24-2.77,3.3a1,1,0,0,0-.17.77c1,2.2,2,4.38,2.92,6.5,1-1,2-2,3-3a.78.78,0,0,0,.12-.68C91,119.14,90,116.89,88.87,114.46Zm-7-18.83c.51-1.65.94-3.14,1.43-4.6a1.17,1.17,0,0,0-.43-1.43c-1.48-1.3-2.92-2.66-4.38-4a4.68,4.68,0,0,0-.49-.35c0,2.25,0,4.51,0,6.77a1.1,1.1,0,0,0,.27.7C79.46,93.68,80.63,94.59,81.91,95.63ZM31.52,75.75c-.91,2.85-2.52,5.12-2.23,8.07.21,2.1.14,4.23.2,6.34a9,9,0,0,0,.16.93c1.38-3.44,2.66-6.58,3.91-9.74a1.08,1.08,0,0,0,0-.75C33,79.07,32.3,77.56,31.52,75.75Zm61.15-2.88-9.33,2.35c.64,1.11,1.13,2.07,1.74,2.94a1.22,1.22,0,0,0,1,.42c1.88-.36,3.74-.8,5.6-1.28a1.15,1.15,0,0,0,.73-.73C92.59,75.4,92.6,74.22,92.67,72.87Zm12.3,66c-1.08,2.07-2,3.91-3,5.68a4.4,4.4,0,0,0-.52,3c.17,1.14.27,2.29.41,3.43.18,1.49.37,3,.57,4.63C104.72,150.2,105.22,144.76,105,138.84ZM58.5,146.37c.28,2.31.52,4.4.8,6.49a.78.78,0,0,0,.43.55c1.1.4,2.23.75,3.51,1.17.12-2.66.23-5.16.33-7.68Zm14.78-49v-8l-4-.69C69.15,91,69,93.17,69,95.35a.8.8,0,0,0,.44.63C70.6,96.45,71.83,96.86,73.28,97.36ZM46.62,72.82c.25,1.4.43,2.6.71,3.78a1.13,1.13,0,0,0,.72.64q2.84.7,5.7,1.3a.89.89,0,0,0,.77-.25c.46-1,.83-2,1.26-3.11Zm4.19,41.6c-1,2.39-1.88,4.61-2.76,6.83a.72.72,0,0,0,.07.61c.87,1,1.78,2.08,2.78,3.22.91-2.32,1.74-4.41,2.54-6.52a1,1,0,0,0,0-.8C52.59,116.67,51.75,115.62,50.81,114.42ZM43.94,14.6l.15.17c.33-.14.66-.27,1-.42,3.62-1.6,7.22-3.26,10.87-4.78,1.54-.64,2-2,2.81-3.24-4.14,1.56-8.2,3.21-12.25,4.88a1.5,1.5,0,0,0-.58.48C45.24,12.65,44.6,13.63,43.94,14.6ZM20.8,89.85c0,1.6,0,3,0,4.48a1,1,0,0,0,.52.69c1.25.55,2.53,1,3.79,1.53,1.43-2,.92-4.12.84-6.28Zm81.12-77.91c-.1.89-.16,1.6-.26,2.3a2.16,2.16,0,0,0,.88,2.19c2.6,2.18,5.14,4.44,7.7,6.67.48.42,1,.82,1.47,1.24l.29-.15c-.14-.61-.09-1.4-.45-1.8C108.44,18.93,105.26,15.54,101.92,11.94ZM61.85,85c-1.85,1.77-3.48,3.32-5.09,4.9a.87.87,0,0,0-.25.67c.33,1.61.71,3.21,1.11,5a26.26,26.26,0,0,1,2.09-1.83A3.46,3.46,0,0,0,61.2,90.9C61.34,89,61.6,87.16,61.85,85Zm6.5,3.8c-.85.15-1.81.28-2.76.49-.26.06-.64.34-.66.55-.24,2.44-.42,4.88-.64,7.51,1.33-.5,2.52-.92,3.68-1.39a.78.78,0,0,0,.36-.6C68.36,93.17,68.35,91,68.35,88.76ZM100.25,146c-1.14-.26-2-.48-3-.65a1,1,0,0,0-.7.14c-2.25,1.69-4.48,3.41-6.79,5.18l2.43,2.13Zm14.81-38.42q2.07-5.65,4.11-11.32a.64.64,0,0,0,0-.43c-.65-1.45-1.32-2.89-2-4.33l-.27.06C116.29,96.88,114.77,102.07,115.06,107.58Zm-.26-6.78c.43-2.62.83-5,1.21-7.37a10.78,10.78,0,0,0,.42-3.51,59.16,59.16,0,0,0-1.79-6.16C113.73,89.37,113.18,95,114.8,100.8ZM29,63.85c.47-2.15,1-4.2,1.37-6.28a7.51,7.51,0,0,0-.07-2c-.12-1.44-.26-2.88-.41-4.33-.17-1.67-.34-3.33-.52-5C28.27,52.06,26.79,57.86,29,63.85Zm85.25,41.38-.27-.09-3.75,6a1.08,1.08,0,0,0-.18.52q0,3.64,0,7.29a1,1,0,0,0,.59-.57c.87-2,1.64-4.13,2.61-6.11C114.39,110,114.09,107.59,114.28,105.23Zm-33.76,6.08c-.85.62-1.62,1.11-2.32,1.7a1.22,1.22,0,0,0-.37,1A36.39,36.39,0,0,0,79,117.47c.08.21.38.5.58.49,1.67,0,3.34-.12,5.19-.21Zm7.11,35.55-5.43-.4v6.66c1.16-.4,2.32-.78,3.46-1.2a1,1,0,0,0,.48-.56C86.63,149.93,87.09,148.49,87.63,146.86ZM77.05,100.27l.4-.16q0-3.35,0-6.68c0-.22,0-.51-.13-.62-1-1-2.08-1.88-3.12-2.82l-.31.16c0,2.33,0,4.67,0,7a1,1,0,0,0,.26.69C75.1,98.67,76.08,99.46,77.05,100.27Zm1.25-6.69-.39.11a38.87,38.87,0,0,1,0,5.29c-.32,2.4,1.31,3.54,2.57,5.31.44-2.66.85-5,1.21-7.39a1.11,1.11,0,0,0-.29-.86C80.36,95.19,79.32,94.39,78.3,93.58ZM93.07,77.16c1.65.15,3.15.3,4.66.42a.89.89,0,0,0,.65-.26c.75-1.08,1.45-2.18,2.28-3.44l-7.35-1.06C93.23,74.32,93.15,75.64,93.07,77.16Zm-63.68,1.9c.7-1.81,1.93-3.38,1.82-5.47-.18-3.5-.29-7-.44-10.49,0-.82-.14-1.63-.22-2.6C28.23,66.67,29.59,72.91,29.39,79.06Zm5,43.4c-.25,5.53,2.5,9.85,4.79,14.35-.26-2.78-.63-5.54-1-8.29a6.41,6.41,0,0,0-.18-1,1.78,1.78,0,0,0-.25-.6C36.63,125.46,35.52,124,34.37,122.46ZM74.9,80c-.05,0-.14.09-.14.14-.24,2.71-.48,5.41-.69,8.11a1.25,1.25,0,0,0,.15.84c1,.92,2,1.79,3.06,2.75C77.72,86.86,76.79,82.35,74.9,80ZM39.22,73.78c.92,1.27,1.7,2.38,2.51,3.45a.86.86,0,0,0,.65.29c1.42-.13,2.84-.3,4.36-.47L46,72.74Zm48.6,51.08.17-.17c-.89-2-1.76-3.94-2.67-5.9a.78.78,0,0,0-.61-.33c-1.67,0-3.35.1-5.28.17.61.91.93,1.85,1.56,2.26C83.21,122.31,85.53,123.55,87.82,124.86ZM54.6,117.69c1.64.09,3.07.2,4.5.22.24,0,.59-.38.71-.66.42-1.06.81-2.15,1.13-3.25a1.17,1.17,0,0,0-.16-1c-.64-.62-1.37-1.15-2.12-1.76Zm18.5,40.95h7.4c-.37-1.15-.71-2.15-1-3.17-.18-.62-.51-.65-1.07-.52a23.13,23.13,0,0,1-2.75.43c-.92.1-1.85.12-2.84.18Zm28.15-84.47-2.46,3.72a46.48,46.48,0,0,1,4,2.44,3.82,3.82,0,0,0,3.82.38Zm-48,72.55c1,2.92,1.53,6,5.39,6.07-.26-2.08-.52-4.2-.8-6.42Zm57.61-19.93c2.22-5,3.46-11.34,2.9-14.15-1.22,2.89-2.38,5.63-3.53,8.37a.75.75,0,0,0-.07.33C110.4,123.16,110.64,125,110.87,126.79ZM73.31,102.45c0-1.38,0-2.63,0-3.89a.77.77,0,0,0-.36-.6c-1.31-.5-2.63-.95-4-1.44-.09,1.66-.19,3.14-.22,4.63,0,.24.25.67.44.7C70.51,102.1,71.9,102.26,73.31,102.45Zm47.11-18c.68-1.87,1.7-3.39,1.32-5.42a38,38,0,0,1-.33-4.67c-.1-1.43-.22-2.86-.34-4.36C118.75,74.73,119.15,79.47,120.42,84.46Zm-1.15,10c.77-4.12.45-12.72-.57-14.92-.41,2.92-.82,5.69-1.19,8.46a5.66,5.66,0,0,0-.11,2.3A39.93,39.93,0,0,0,119.27,94.45ZM123,97.73a10.76,10.76,0,0,1,.91,2.85c0,1.4,1,1.91,1.69,2.71,2.08-2.11,2-4.81,2.64-7.5ZM91.45,91.59l8.38-1.4c-.33-.69-.64-1.23-.86-1.81a1.12,1.12,0,0,0-1.44-.77c-1.46.24-2.94.4-4.4.63-.28.05-.69.21-.77.43C92,89.56,91.78,90.48,91.45,91.59ZM72.21,155.44c-2,0-3.95,0-5.87,0a.85.85,0,0,0-.68.45c-.17.82-.23,1.67-.35,2.66h7.13Zm-2.56-23.67.3,3.45,5.12.28.78-4.18ZM44.92,150.9c-.66,5.77-1.94,11.47-.93,17.32C45,162.5,47.07,156.86,44.92,150.9Zm14.35-32.54c-1.72,0-3.16,0-4.59,0a.81.81,0,0,0-.59.35c-.79,1.94-1.54,3.89-2.3,5.84l.23.18C54.31,122.66,57.75,122.07,59.27,118.36Zm62.1-64.59-.24-.09c-.36.63-.74,1.25-1.07,1.9s-.69,1.11-.6,1.59c.52,2.94,1.17,5.86,1.77,8.79l.41.06a11.65,11.65,0,0,0,.81-3.42C122.25,59.65,121.75,56.71,121.37,53.77ZM63,131.28c.47,1.4.85,2.58,1.27,3.75a.72.72,0,0,0,.54.39c1.46,0,2.93-.13,4.5-.21L69,131.78ZM82.77,75.74l-4.7,7.91c1.3.09,2.36,0,3.14-1.05a12.11,12.11,0,0,1,1.25-1.23c.76-.79,2.05-1.54,2.11-2.38s-1-2-1.52-3A2.48,2.48,0,0,0,82.77,75.74ZM41.36,77.82l-2.72-3.7L34.52,80.8c1,0,1.9.27,2.48,0A51.19,51.19,0,0,0,41.36,77.82Zm28.33,53.31,6.2-.47-.36-3.35c-1.86.11-3.58.2-5.31.34a.76.76,0,0,0-.5.53C69.67,129.13,69.69,130.09,69.69,131.13ZM68.25,96.55c-1.34.5-2.52.92-3.68,1.39a.93.93,0,0,0-.4.6c-.21,1.23-.37,2.47-.58,3.9,1.45-.21,2.76-.37,4-.6.17,0,.38-.43.4-.67C68.14,99.69,68.18,98.22,68.25,96.55ZM48.71,91.49c-.31-1-.57-1.66-.76-2.37a1.29,1.29,0,0,0-1.29-1.07c-1.37-.14-2.72-.39-4.08-.53a1,1,0,0,0-.83.4,18.78,18.78,0,0,0-.87,2.15ZM63,130.64l6,.46v-3.41c-.93-.09-1.75-.18-2.58-.25C63.32,127.18,63.32,127.18,63,130.64Zm55.65-30.46c-2.42,3.56-4.75,12.77-4,15.4C117.59,111,117.74,105.58,118.64,100.18Zm-60,3.44.4.12A19.79,19.79,0,0,0,60.53,100a42.85,42.85,0,0,0,.3-5.33c0-.33,0-.67,0-1.17-1,.88-1.83,1.59-2.61,2.36a1.27,1.27,0,0,0-.4.93C58.06,99.08,58.37,101.35,58.67,103.62Zm47.7-21.89-.19-.35a6.8,6.8,0,0,0-2.28.9c-1.54,1.39-2.94,3-4.36,4.5a1,1,0,0,0-.24.83c.29.71.68,1.37,1.11,2.19Zm-42.1,8.34c-1.62,1.54-3.12,2.7-2.86,5a23.58,23.58,0,0,1-.17,3.55c0,.41,0,.82,0,1.54.95-1,2.1-1.73,2.28-2.62A74.81,74.81,0,0,0,64.27,90.07Zm20.2-.15,6.31,1.66,1-3.28c-1.8-.23-3.44-.47-5.09-.64A1,1,0,0,0,86,88C85.48,88.54,85.06,89.15,84.47,89.92Zm42.6-5.34a10.4,10.4,0,0,0-4.88,5.3l6.15-.47C127.91,87.76,127.51,86.26,127.07,84.58Zm-19.19,74.25a6.9,6.9,0,0,0,1.43,4.56c3,3.69,5.82,7.49,8.72,11.24.13.17.28.33.42.5l.31-.28ZM55.4,89.89c-.81-1.73-1.76-2.78-3.68-2.13a11.17,11.17,0,0,1-2.25.28c-.37,0-.73.12-1.18.2l1.12,3.25Zm5.85-6,.23-.37-5.18-7.8a24.75,24.75,0,0,0-1,2.63,1.46,1.46,0,0,0,.3,1.19,47.7,47.7,0,0,0,3.62,3.35A9.59,9.59,0,0,0,61.25,83.84ZM78.49,118,77,113.7c-1.2.43-2.3.79-3.36,1.23a1,1,0,0,0-.44.8c.15.9.42,1.78.66,2.73Zm42.58-18.56-1,8.7A33.11,33.11,0,0,0,122.7,105c1-1.25.66-2.73.55-4.07,0-.5-1.16-.92-1.79-1.37C121.41,99.51,121.33,99.52,121.07,99.46Zm-47.63,3.66-4.81-.64c0,1.07,0,2,0,2.84a.79.79,0,0,0,.36.58c1.33.38,2.68.7,4.1,1.07ZM21,95.63a13.83,13.83,0,0,0,1.9,7.31,2.06,2.06,0,0,0,1.11-2.29,3.59,3.59,0,0,1,.23-1.39c.21-.66.48-1.3.76-2.05Zm33.91,57-.06.42,9.79,5.34.34-2.74c-1.43-.4-2.72-.72-4-1.14-1.71-.57-3.4-1.23-5.11-1.82A3.59,3.59,0,0,0,55,152.62ZM27.35,73.36c1.25-4.49,1.25-10,0-13.59C26.55,64.37,26,68.82,27.35,73.36Zm53.77,57.18c-1.38.22-2.76.42-4.13.65-.19,0-.46.19-.49.33-.27,1.2-.48,2.42-.75,3.8l3.53-1.4C81.15,133.19,81.39,132.75,81.12,130.54ZM61.74,113.67l-1.5,4.3c1.27.14,2.41.29,3.55.38a.76.76,0,0,0,.65-.36c.28-.94.48-1.9.72-2.89ZM64,107c1.3-.36,2.47-.67,3.63-1a.74.74,0,0,0,.38-.55c0-.91,0-1.83,0-2.9l-4.43.64ZM61.69,91.71c.75-.77,1.29-1.3,1.79-1.86.3-.35.77-.76.76-1.14,0-2.62-.2-5.23-.32-7.85C62.19,84.2,62.24,87.85,61.69,91.71ZM34.87,81.5l5.45,8.1a10,10,0,0,1,.51-1.14A1.72,1.72,0,0,0,40.47,86a42.46,42.46,0,0,1-3.19-3.63A2.54,2.54,0,0,0,34.87,81.5Zm43.44,3,5.58,5.11,1.71-2.28c-1.58-.93-3.07-1.77-4.51-2.68A3,3,0,0,0,78.31,84.52Zm2.61,37.15c-.26,2.4-.26,2.4,1.58,3.35a11.72,11.72,0,0,1,1.82,1c1.27,1,2.4.57,3.64-.3ZM63.63,135.21c-.43-1.33-.75-2.39-1.12-3.43-.09-.24-.32-.56-.54-.6-1.25-.27-2.52-.47-3.92-.71a13.5,13.5,0,0,0,.26,1.47c.16.49.31,1.2.67,1.37C60.4,134,61.9,134.53,63.63,135.21Zm10-13.8c.59.87,1,2,1.55,2.14a32.19,32.19,0,0,0,5,.43v-2.57Zm13.3,29.73c3.12-.75,4.61-3,5.62-5.85-1.33.48-2.55.9-3.75,1.37a1.08,1.08,0,0,0-.57.58C87.73,148.52,87.32,149.81,86.89,151.14Zm30.92-41.47c1,.17,1.44,0,1.55-1,.3-3,.73-6,1-9a8.76,8.76,0,0,0-.34-2.12l-.37,0C119.06,101.61,118.44,105.62,117.81,109.67ZM25.73,89.61a10.26,10.26,0,0,0-3.82-5.11l-1,4.7Zm94.37,19.85a2.63,2.63,0,0,0,.45.25c.92.15,2.11.7,2.71.31s.76-1.72,1.07-2.66.6-1.92.89-2.88l-.36-.2C122.42,105.12,121.9,107.83,120.1,109.46Zm-64-19.9,5.22-5-.2-.29c-2.69-.11-4.38,2.13-6.76,3ZM26.4,99.4l-.32-.23c-.48.53-1.28,1-1.39,1.58-.52,2.86,1.08,5,2.84,7.29C27.13,105,26.76,102.17,26.4,99.4Zm98.91-21V85c.63-.5,1.47-.83,1.67-1.4a44.19,44.19,0,0,0,1.14-4.79ZM76.53,130.59l4.72-.74a13.41,13.41,0,0,0-.3-1.47c-.09-.28-.3-.7-.5-.72-1.38-.16-2.77-.24-4.27-.35Zm-17.87-9.2v2.5c1.15-.06,2.19-.1,3.23-.19,1.9-.17,2-.23,2.31-2.31Zm-6.83,4.16c1.77,1.2,1.79,1.21,3.34.25l1.39-.85c1.64-1,1.66-1.07,1.22-3.25Zm17.6-7.09H73.2c-.24-1-.42-1.88-.68-2.72a.87.87,0,0,0-.55-.54c-.82-.13-1.64-.17-2.54-.24Zm3.12-7.15.42,3.16c1.2-.43,2.27-.77,3.3-1.2a1.08,1.08,0,0,0,.55-.77,14.89,14.89,0,0,0-.3-2ZM92.27,123l-.26-.12c-1,1.53-3,2.23-3,4.58l3.54.77C92.44,126.32,92.35,124.64,92.27,123ZM65,118.42c1.15.06,2.12.15,3.09.14a.9.9,0,0,0,.63-.62c.08-1,0-1.91,0-3-.93.07-1.71.09-2.49.21a.89.89,0,0,0-.57.52C65.44,116.54,65.26,117.41,65,118.42Zm-6.84,11.41,4.14.7.51-3.12c-.87,0-1.55,0-2.23,0C58.61,127.49,58.5,127.61,58.17,129.83ZM74.06,98.62c0,1.35,0,2.49,0,3.62a.7.7,0,0,0,.36.49c1.06.38,2.15.72,3.24,1.08C77.9,101,75.68,100.16,74.06,98.62ZM27.52,109.38c-1.08-1.69-2-3.21-3-4.68-.22-.31-.71-.42-1.07-.62l-.17.24L24.76,110ZM50.85,127.3A6.44,6.44,0,0,0,47.8,123V128ZM26.29,83.17c.59-3.9,1-7.8-.17-11.67C26.25,75.39,24.8,79.3,26.29,83.17Zm47.76,20.14L73.77,107c2.6.36,3,.1,3.88-2.46Zm5.77,17.37C79,118.6,79,118.61,77,118.82c-.6.07-1.22.08-1.83.14-1.41.15-1.42.18-1.31,1.72Zm-14.45-6.21c0-1.07,0-1.88,0-2.68a.84.84,0,0,0-.43-.63c-.89-.26-1.8-.45-2.77-.68a15.21,15.21,0,0,0-.21,2,1,1,0,0,0,.44.74C63.25,113.63,64.17,114,65.37,114.47ZM91.85,129l-.08-.3c-1-.18-2.12-.69-3-.44-.7.19-1.29,1.27-1.64,2.08-.16.39.37,1.09.64,1.78ZM54,150.79c-1-3.61-2.26-5.08-4.77-5.3C50.55,147.55,51.4,150,54,150.79Zm21.06-24.73.22-.3c-.48-.49-.94-1.37-1.46-1.41a30.94,30.94,0,0,0-4.41.27l.27,1.69ZM59,120.6h5.41c0-1.53,0-1.58-1.36-1.69-.39,0-.79-.06-1.18-.11C59.79,118.52,59.79,118.52,59,120.6Zm38.6,24.14c1.07.22,1.84.42,2.62.53.26,0,.71-.05.82-.24.8-1.43,1.53-2.89,2.29-4.34l-.17-.15ZM100,142.1l-.1-.18c-1.75.82-3.49,1.69-5.26,2.46-1.59.68-1.77,2.28-2.36,3.64Zm-31-15.79c-.07-1.76-.07-1.75-1.56-1.83-.69,0-1.37-.09-2-.15-1.52-.13-1.62,0-1.75,1.7Zm-40.42-55c-.91,2.65-1,10.52,0,13.24Zm-7.27,7.32c.91,1.94-.26,4.38,2,6V78.31ZM46,152.7l.46.06c0-2.23.1-4.46,0-6.68a3.53,3.53,0,0,0-1.77-3.27Zm2.19-24,4.24,3.38c.13-.91.47-1.66.25-2.1-1-2.08-1.35-2.16-3.55-1.57C48.89,128.44,48.66,128.52,48.19,128.67ZM29.45,109.42c-.73-3.81-1.45-7.55-2.16-11.28A1.1,1.1,0,0,0,27,99c.41,3.2.84,6.39,1.25,9.59C28.3,109.32,28.65,109.58,29.45,109.42Zm43.69,9.73c-.6,0-1.13,0-1.66,0-2.35.06-2.35.06-2.16,2.52a.47.47,0,0,0,.05.1C71.85,121.68,73.12,120.85,73.14,119.15ZM98.58,86.39l.38.08,2.09-2.23,2.07-2.17c-2.61-.72-3.38,1.48-4.6,2.85C98.3,85.18,98.55,85.89,98.58,86.39Zm-26.28,28-.36-3-2.79.32C69.15,114.42,69.32,114.57,72.3,114.43ZM86.42,130.8l-4.78,2.84.47,1.14,5.13-2.42ZM63,103.31l-2.76,1.16c.92,2.7,1.29,3,3.14,2.38Zm1.81,15.89c.28.65.36,1.45.75,1.66a20.88,20.88,0,0,0,3.2,1.11,17.16,17.16,0,0,0,0-2.06c0-.26-.36-.67-.57-.68C67.09,119.16,66.05,119.2,64.76,119.2ZM75,124.3c.52.74.8,1.59,1.21,1.67a36,36,0,0,0,4.27.28c-.21-.79.15-1.63-.92-1.68C78.14,124.5,76.74,124.4,75,124.3ZM69.47,124l4.5-.3c-.14-.4-.24-.64-.3-.89-.26-1.09-.83-1.44-1.87-.93a6.93,6.93,0,0,1-1.65.54C69.27,122.54,69.11,123,69.47,124Zm-6.32.31c-1.09.08-2.16.17-3.22.22-1.45.06-1.53.15-1.13,1.59.87,0,1.73,0,2.59,0C62.85,126.05,62.89,126,63.15,124.26Zm9.59-16.69-4.07-1.06.19,2.27C71.84,109.41,71.86,109.41,72.74,107.57ZM92.83,87.62l5.27-.73c-.11-1.23-.68-1.48-1.59-1.29a10.5,10.5,0,0,1-1.93.24C93.54,85.87,93,86.4,92.83,87.62Zm-35.48,47,.42-.16c-.13-.4-.14-1-.4-1.17-1.23-.89-2.53-1.67-3.87-2.53l-.72,1.53Zm6.86-11,4.61.33c-.19-.58-.22-1.24-.47-1.35-1.07-.47-2.2-.77-3.36-1.15Zm1.7-9.07,2.66-.29c0-2.6.15-2.76-2.53-2.7ZM28.78,40.79l-.46,0-1,11.75a.76.76,0,0,0,.4-.58c.39-2.72.82-5.44,1.14-8.17A21.79,21.79,0,0,0,28.78,40.79ZM68.19,108.7,68,106.5l-3.63,1C65.45,109.39,65.83,109.51,68.19,108.7ZM81.73,84.3l3.14,1.86c1.37.81,1.63.76,2.84-.64C85.69,85.1,83.91,84,81.73,84.3Zm47.4,4.63a51.77,51.77,0,0,0-.63-8C126.9,83.86,128.31,86.37,129.13,88.93ZM81.62,132.55l.23.21,4-2.39c-1.09-1.57-2.21-.45-3.24-.2C81.28,130.5,82.09,131.81,81.62,132.55Zm-44-50.65,3.84,4.38.36-.11c0-.49.13-1.17-.13-1.45C40.64,83.51,40.1,81.42,37.66,81.9Zm9.49,5.52c-.14-1-.5-1.65-1.57-1.64a7,7,0,0,1-1.93-.26c-1.12-.35-1.28.31-1.37,1.27l3.66.56C46.33,87.4,46.72,87.4,47.15,87.42Zm13.24,16.16c2.61-.73,3.31-1.83,2.84-4.5C61.89,100.31,60.59,101.51,60.39,103.58ZM124.65,78.3l-2.41-.71c.19,1.65-.2,3.23,1.24,4.47C123.87,80.81,124.23,79.66,124.65,78.3ZM87.2,87.07c1.29.17,2.44.3,3.57.46,1.32.19,1.42.12,1.74-1.53C90.73,86.21,88.81,85.11,87.2,87.07ZM47.19,86c.49.67.82,1.49,1.13,1.48,1.45,0,2.9-.3,4.52-.5C51.11,85.17,49.27,86,47.19,86Zm11.14-1.71-.16-.47-5.8,1.66,0,.37c.63.27,1.41.93,1.86.74A36.52,36.52,0,0,0,58.33,84.28Zm34-6.43-6.52,1.48,0,.42a3.4,3.4,0,0,0,1,.16c1.65-.24,3.27-.56,4.92-.78C92.5,79,92.67,78.71,92.34,77.85Zm10.56,3.28-4.39-2.65L98,79.94C99.48,80.73,100.82,81.84,102.9,81.13ZM42.36,78.18c0,1.3.55,1.58,1.54,1.3a17,17,0,0,1,2.11-.4c.82-.12,1.06-.51.59-1.35ZM27.15,92h.34c.74-3.28-.06-6.53-.34-9.79ZM97.77,78.26l-4.55-.44c-.17.78-.09,1.23.73,1.31a12.2,12.2,0,0,1,2.32.45C97.38,79.93,97.66,79.35,97.77,78.26Zm-50.15-.45c-.33.72-.17,1.1.57,1.21,1.78.28,3.55.59,5.34.85.2,0,.43-.18.65-.28l-.06-.29Zm30.63,27.24L77,107.35l2.39,1.43C79.69,107.21,79.84,105.89,78.25,105.05Zm-20.57,27.6c-.13-2.31-.17-2.3-2.11-3.05-.74-.29-1.14,0-1.58.65Zm63.09-45.86.34.11c.52-1,1-2,1.58-3s.43-1.53-.55-2.13C121.77,83.53,120.29,84.88,120.77,86.79ZM41.62,78.43,37.92,81c1.85.85,2.9-.45,4.19-1.11Zm38.51,32.35a1.61,1.61,0,0,0-2.54-.51c-.73.6-.25,1.47,0,2.34ZM75,108.4c-.8.39-1.55.73-2.27,1.15a1,1,0,0,0-.31.7c0,.1.31.35.45.32,1.06-.2,2.12-.45,3.35-.73Zm6.06,25.51-5.38,2.17.12.32L81.45,135Zm-17.32,2.45.09-.34-5.32-2.16-.35,1Zm59.47-49.8c2.14-1.42,1.1-3.5,1.5-5.27l-.39-.08Zm-62.07,26c.65-2.3.35-2.66-2.07-2.71C58.93,111.43,60.46,111.52,61.13,112.59Zm24-32.91-3.77,3.64C82.87,83.4,85.46,80.94,85.14,79.68Zm35.11,17.08.26,0V87.9c-.28,2.57-.45,5.14-.57,7.72A3.81,3.81,0,0,0,120.25,96.76Zm-7.51-72.35-.41.21a67.17,67.17,0,0,0,4.17,7.57ZM125,106.92l.26.15c1.71-2.21,2.42-3.86,1.77-4.9Zm-55.92,4.19,3-.41c-.85-1.45-2.08-.81-3.17-1.29Zm15.5,17.66c-1-1-2-.78-3.1-1l.46,1.9,1.73-.53C83.88,129.08,84.1,129,84.56,128.77Zm36.9-33.27c-.37,3.6-.55,3.18,1.48,3.93Zm-61.79,9.83-.4,0L59,108.6C60.92,107.37,60.93,107.23,59.67,105.33ZM28.13,93.47c-1,2-.3,3.8.45,5.6Zm-3.95-12a4,4,0,0,0,.72-3.62c-.85,0-1.16.34-1,1.24A23.41,23.41,0,0,1,24.18,81.52Zm33.91,46c-1.07.53-2.18,0-2.88,1.24l2.22.85Zm4.84-19.16-.63,1.44,3.13.77C64.91,109.23,63.8,109.11,62.93,108.38ZM26.34,86.11l-1.23-4.38C24.28,82.75,24.79,84.63,26.34,86.11ZM65.9,109.84c.24,1,.74,1.24,2.48,1.07l-.21-1.41ZM58.34,83.42l.17-.31-3.62-3.29-.31.38C55.88,81.22,56.65,82.88,58.34,83.42Zm26.25,43.65,0-.22L81.12,125l-.29.31c.28.37.49.92.85,1.05A25.12,25.12,0,0,0,84.59,127.07Zm36.72-37.34.3.1,1.28-4.13A4.24,4.24,0,0,0,121.31,89.73ZM62.2,108.24c-1.09-.6-1.26-.53-2.37.87C61.67,109.85,61.7,109.85,62.2,108.24Zm-7.39,18.54c3.44-.5,3.47-.37,3-1.85Zm24-17.65c-1.17-.34-1.79-1.53-3.07-1C76.83,109.84,76.93,109.87,78.82,109.13Zm-8.76,26.75,0,.49h4.82v-.21Zm-5.38.24v.18h4.61v-.42ZM40.59,81.8c1.1,2.16,1.83,2.8,2.6,2.34C42.28,83.38,41.87,82.08,40.59,81.8Zm81.76-15.65c-1.2,1.36-.61,2.91-.54,4.43.14-.07.22-.14.22-.23C122.15,69,122.25,67.55,122.35,66.15Zm-34.59,62c-1.05-.16-1.83-.11-2.25.95l1,.77Zm-37.83,20,.11-.1c-.43-.73-.88-1.44-1.28-2.19s-.78-.74-1.17-.23ZM97.22,84.41c.85.08,2.24-1.36,2.74-2.71C98.65,82.29,98.19,83.49,97.22,84.41ZM52.39,127.85l-.15.37,1.17,1.52,1.14-1.06Zm65.14-17.17,0,.38,3.53-.47A4.28,4.28,0,0,0,117.53,110.68Zm-37.69-5.15.41-.24-1.83-2.6C78.26,104.2,79.1,104.83,79.84,105.53ZM25,99.08c1.38-.59,1.55-1.09,1-2.61Zm3.6-6.45.17,0v-4h-.17Zm-7.24-10-.35,0-.26,3.12.32,0ZM27.25,110l-.06.41,2.41.25,0-.41Zm61.1,16.39-2.25,1C88.12,127.51,88.19,127.48,88.35,126.36Z" transform="translate(-20.05 -3.41)"/></svg>