<svg id="Capa_2" data-name="Capa 2" xmlns="http://www.w3.org/2000/svg" viewBox="0 0 197.22 180.84"><defs><style>.cls-1{fill:#2cf5a9;stroke:#2cf5a9;stroke-miterlimit:10;}</style></defs><title>icon</title><path class="cls-1" d="M62.91,8.17h1.64L57.26,27.5H55.62Z" transform="translate(-1.47 -7.67)"/><path class="cls-1" d="M69,8.17H70.6L77.88,27.5H76.24Z" transform="translate(-1.47 -7.67)"/><path class="cls-1" d="M129.57,8.17h1.65L123.93,27.5h-1.64Z" transform="translate(-1.47 -7.67)"/><path class="cls-1" d="M135.62,8.17h1.64l7.29,19.33h-1.64Z" transform="translate(-1.47 -7.67)"/><path class="cls-1" d="M49.57,34.84h1.65L43.93,54.17H42.29Z" transform="translate(-1.47 -7.67)"/><path class="cls-1" d="M82.29,34.84h1.64l7.29,19.33H89.57Z" transform="translate(-1.47 -7.67)"/><path class="cls-1" d="M116.24,34.84h1.64L110.6,54.17H109Z" transform="translate(-1.47 -7.67)"/><path class="cls-1" d="M149,34.84h1.65l7.28,19.33h-1.64Z" transform="translate(-1.47 -7.67)"/><path class="cls-1" d="M36.24,61.51h1.64L30.6,80.83H29Z" transform="translate(-1.47 -7.67)"/><path class="cls-1" d="M98.29,75.66a1.8,1.8,0,1,1,1.79,1.89A1.79,1.79,0,0,1,98.29,75.66Z" transform="translate(-1.47 -7.67)"/><path class="cls-1" d="M162.29,61.51h1.64l7.29,19.32h-1.65Z" transform="translate(-1.47 -7.67)"/><path class="cls-1" d="M22.91,88.17h1.64L17.26,107.5H15.62Z" transform="translate(-1.47 -7.67)"/><path class="cls-1" d="M28.09,105.48H38.75v1.58H28.09Z" transform="translate(-1.47 -7.67)"/><path class="cls-1" d="M41.42,105.48H52.08v1.58H41.42Z" transform="translate(-1.47 -7.67)"/><path class="cls-1" d="M54.75,105.48H65.42v1.58H54.75Z" transform="translate(-1.47 -7.67)"/><path class="cls-1" d="M68.09,105.48H78.75v1.58H68.09Z" transform="translate(-1.47 -7.67)"/><path class="cls-1" d="M81.42,105.48H92.08v1.58H81.42Z" transform="translate(-1.47 -7.67)"/><path class="cls-1" d="M94.75,105.48h10.67v1.58H94.75Z" transform="translate(-1.47 -7.67)"/><path class="cls-1" d="M108.09,105.48h10.66v1.58H108.09Z" transform="translate(-1.47 -7.67)"/><path class="cls-1" d="M121.42,105.48h10.66v1.58H121.42Z" transform="translate(-1.47 -7.67)"/><path class="cls-1" d="M134.75,105.48h10.67v1.58H134.75Z" transform="translate(-1.47 -7.67)"/><path class="cls-1" d="M148.09,105.48h10.66v1.58H148.09Z" transform="translate(-1.47 -7.67)"/><path class="cls-1" d="M161.42,105.48h10.66v1.58H161.42Z" transform="translate(-1.47 -7.67)"/><path class="cls-1" d="M175.62,88.17h1.64l7.29,19.33h-1.64Z" transform="translate(-1.47 -7.67)"/><path class="cls-1" d="M2,122.59h9.56V124H2Z" transform="translate(-1.47 -7.67)"/><path class="cls-1" d="M15.31,122.59h9.55V124H15.31Z" transform="translate(-1.47 -7.67)"/><path class="cls-1" d="M28.64,122.59h9.55V124H28.64Z" transform="translate(-1.47 -7.67)"/><path class="cls-1" d="M42,122.59h9.56V124H42Z" transform="translate(-1.47 -7.67)"/><path class="cls-1" d="M55.31,122.59h9.55V124H55.31Z" transform="translate(-1.47 -7.67)"/><path class="cls-1" d="M68.64,122.59h9.55V124H68.64Z" transform="translate(-1.47 -7.67)"/><path class="cls-1" d="M82,122.59h9.56V124H82Z" transform="translate(-1.47 -7.67)"/><path class="cls-1" d="M95.31,122.59h9.55V124H95.31Z" transform="translate(-1.47 -7.67)"/><path class="cls-1" d="M108.64,122.59h9.55V124h-9.55Z" transform="translate(-1.47 -7.67)"/><path class="cls-1" d="M122,122.59h9.56V124H122Z" transform="translate(-1.47 -7.67)"/><path class="cls-1" d="M135.31,122.59h9.55V124h-9.55Z" transform="translate(-1.47 -7.67)"/><path class="cls-1" d="M148.64,122.59h9.55V124h-9.55Z" transform="translate(-1.47 -7.67)"/><path class="cls-1" d="M162,122.59h9.56V124H162Z" transform="translate(-1.47 -7.67)"/><path class="cls-1" d="M175.31,122.59h9.55V124h-9.55Z" transform="translate(-1.47 -7.67)"/><path class="cls-1" d="M188.64,122.59h9.55V124h-9.55Z" transform="translate(-1.47 -7.67)"/><path class="cls-1" d="M54.75,158.81H65.42v1.58H54.75Z" transform="translate(-1.47 -7.67)"/><path class="cls-1" d="M134.75,158.81h10.67v1.58H134.75Z" transform="translate(-1.47 -7.67)"/><path class="cls-1" d="M18.88,171.13l0-2.44h2.45l0,2.44-.57,5H19.46Z" transform="translate(-1.47 -7.67)"/><path class="cls-1" d="M28.64,175.93h9.55v1.38H28.64Z" transform="translate(-1.47 -7.67)"/><path class="cls-1" d="M44.71,177.77a12.36,12.36,0,0,1,5-10.08l1,.93a11.79,11.79,0,0,0,0,18.31l-1,.93A12.39,12.39,0,0,1,44.71,177.77Z" transform="translate(-1.47 -7.67)"/><path class="cls-1" d="M54.75,185.48H65.42v1.58H54.75Z" transform="translate(-1.47 -7.67)"/><path class="cls-1" d="M69.46,186.93a11.79,11.79,0,0,0,0-18.31l1-.93a12.72,12.72,0,0,1,0,20.17Z" transform="translate(-1.47 -7.67)"/><path class="cls-1" d="M82,175.93h9.56v1.38H82Z" transform="translate(-1.47 -7.67)"/><path class="cls-1" d="M95.31,175.93h9.55v1.38H95.31Z" transform="translate(-1.47 -7.67)"/><path class="cls-1" d="M108.64,175.93h9.55v1.38h-9.55Z" transform="translate(-1.47 -7.67)"/><path class="cls-1" d="M124.71,177.77a12.36,12.36,0,0,1,5-10.08l1,.93a11.79,11.79,0,0,0,0,18.31l-1,.93A12.39,12.39,0,0,1,124.71,177.77Z" transform="translate(-1.47 -7.67)"/><path class="cls-1" d="M134.75,185.48h10.67v1.58H134.75Z" transform="translate(-1.47 -7.67)"/><path class="cls-1" d="M149.46,186.93a11.79,11.79,0,0,0,0-18.31l1-.93a12.72,12.72,0,0,1,0,20.17Z" transform="translate(-1.47 -7.67)"/><path class="cls-1" d="M162,175.93h9.56v1.38H162Z" transform="translate(-1.47 -7.67)"/><path class="cls-1" d="M178.88,171.13l0-2.44h2.45l0,2.44-.58,5h-1.25Z" transform="translate(-1.47 -7.67)"/></svg>